<?xml version="1.0" encoding="UTF-8"?>
<svg id="Layer_1" data-name="Layer 1" xmlns="http://www.w3.org/2000/svg" viewBox="0 0 1252.5 1254">
  <path d="m381.5,1061.17c3.41.06,6.81.83,10.23.19,1,.07,1.99.19,2.99.2,65.99,1.08,131.98,1.79,197.97,1.71.83,0,1.67.03,2.5-.04,1.74-.15,2.7-1.09,2.78-2.87-1.17-2.87-3.68-2.37-5.96-2.37-66.83,0-133.65.97-200.46,2.1-3.33-.39-6.66-.13-9.99.05-1.47-.17-2.93-.32-5,.81,2.21.67,3.54,1.34,4.94.23Z" fill="#fef6ec"/>
  <path d="m685.59,582.13c-.37.87-2.1,1.6-.28,2.7,3.35-4.84,7.72-8.64,12.33-12.23,1.96-1.53,3.91-3.2,5.42-5.15,7.35-9.51,5.84-19.13-2.34-25.4-3.43-2.63-7.08-4.99-10.72-7.33-5.86-3.76-11.36-7.82-14.19-14.63-.51,3.03.06,5.62,1.27,8.24,2.9,6.31,8.12,10.5,13.13,14.86,10.46,9.11,10.64,18.05,2.41,28.09-2.74,3.34-5.39,6.78-7.02,10.86Z" fill="#fef6ec"/>
  <path d="m655.33,1041.57c-8.62,2.54-12.79,9.14-14.67,17.19-1.75,7.48-5.61,12.96-12.31,16.53-1.66.89-3.34,1.75-5.42,2.84,5.54,4.17,11.17,5.65,17.28,3.95,12.33-3.43,18.81-12.22,20.93-24.38,1.03-5.9.07-11.59-4.47-16.11-.43-.78-.88-.79-1.33-.02Z" fill="#fef6ec"/>
  <path d="m888.43,1060.14c-69.25-1.48-138.51-2.32-207.41-2.11-2.12,1.8-2.35,3.3-.87,4.62,1.57,1.04,2.93.69,4.25.69,52.13-.1,104.26.07,156.38-1.08,15.98-.35,31.97.04,47.94-.99,3.6.61,7.1-.09,10.61-.69-3.65-.49-7.26-.91-10.9-.43Z" fill="#fef6ec"/>
  <path d="m710.61,572.12c4.54-2.6,8.26-6.15,11.16-10.42,7.37-10.84,6.7-20.64-1.95-30.61-2.73-3.15-6.14-5.57-9.5-8.02-5.37-3.93-10.52-8.11-14.74-13.32-4.14-5.11-6.02-10.95-6.08-17.51-.08-7.97,3.13-14.73,7.32-21.18,1.2-.95,2.21-2.01,2.64-4.34-2.2,1.22-3.75,1.95-4.83,3.4-2.24,1.98-4.65,3.8-6.7,5.96-14.52,15.27-13.46,33.67,1.88,47.03,3.53,3.07,7.36,5.71,11.34,8.14,3.71,2.27,7.12,4.92,10.17,8.01,7.06,7.16,8.27,15.24,3.8,24.21-1.42,2.85-3.44,5.29-5.17,7.93-.45.35-1.05.56-1.16,1.45.75.06,1.46.3,1.82-.72Z" fill="#fef6ec"/>
  <path d="m970.65,892.83c-5.11-3.03-10.54-2.1-15.92-1.21-8.34,1.38-16.36,8.82-17.72,18.27-.83,5.76-.37,11.55-.89,17.8h-12.66v10.82h12.95v67.57c4.43-.05,8.34.36,12.77-.32v-67.28h20.35c-.45-3.83.37-7.24-.69-10.71-6.54-.48-12.99.39-19.67-.57,0-4.07-.05-7.71.03-11.36.03-1.32.28-2.65.57-3.95,1.73-7.79,7.79-11.73,15.57-10.27,1.73.33,3.4,1.23,5.3.92.9-2.87.65-5.72.82-8.51.31-.78-.18-1.03-.79-1.21Z" fill="#fef6ec"/>
  <path d="m825.79,907.96c-7.95-10.68-19.85-15.71-31.86-17.61-31.22-4.93-60,14.03-66.7,45.07-2.75,12.76-2.43,25.53,2.74,37.27,8.45,19.2,23.16,31.67,44.47,34.78,16.99,2.47,32.84-.64,46.59-11.57,1.77-1.4,3.93-2.57,4.58-5.28-2.25-3.2-5.09-5.89-7.78-8.46-1.62.37-2.27,1.41-3.12,2.17-12.69,11.29-27.58,14.43-43.45,9.7-15-4.47-25.28-14.87-29.56-30.2-4.35-15.61-2.68-30.52,6.99-43.98,4.74-6.6,10.78-12.01,18.4-14.73,17.95-6.4,34.32-3.64,48.27,9.99.63.61,1.31,1.01,2.62.85,2.81-2.03,5.35-4.77,7.78-7.99Z" fill="#fef6ec"/>
  <path d="m348.26,927.61c-4.59.41-8.66-.39-12.63.54v77.62h12.72c0-1.33,0-2.31,0-3.28,0-13,.02-26,.03-39,0-5.9,1.13-11.47,4.51-16.47,4.42-6.53,13.88-10.73,20.87-9.11,9.65,2.23,13.92,7,15.19,17.09.25,1.98.35,3.98.36,5.98.05,12.83.05,25.67.06,38.5,0,2.11,0,4.23,0,6.4h12.31c.23-.7.5-1.15.5-1.61.03-16.17.25-32.34-.05-48.5-.15-8.48-2.25-16.54-8.83-22.66-10.14-9.43-30.61-10.31-41.44,2.1-1,1.15-1.53,2.91-3.61,3.44v-11.03Z" fill="#fef6ec"/>
  <path d="m269.21,903.37v102.82c4.77-.27,9,.39,13.64-.63v-102.33h36.94c.07-4.23.35-7.95-.26-11.58-7.27-.81-85.21-.61-89.36.25.38,3.67-.4,7.44.53,11.48h38.5Z" fill="#fef6ec"/>
  <path d="m624.84,938.85c.71,1.97.36,3.8.39,5.6.19,14.98-.51,29.98.37,44.95.4,6.9,3.93,12.46,10.15,15.42,8.9,4.24,17.96,3.37,26.69-.34.7-4.29-.65-7.67-1.37-11.22-12.92,4.71-16.47,4.05-22.51-4.17v-50.64h22.75c.04-3.87.66-7.26-.47-10.96h-22.69v-23.44h-13.07v23.74h-13.79c.2,3.78-.47,7.17.48,10.48,4.52.51,8.86-.22,13.08.56Z" fill="#fef6ec"/>
  <path d="m620.1,1074.95c9.95-3.7,15.06-10.83,17.12-20.31,1.45-6.69,5.46-11.13,11.29-14.2,1.39-.74,3.01-1.09,4.03-2.43-4.4-4.88-11.2-6.01-18.26-3.39-8,2.97-13.28,8.61-16.47,16.33-3.41,8.25-3.57,16.25,2.3,24.01Z" fill="#fef6ec"/>
  <path d="m377.88,307.85c.4-1,.69-1.37.6-1.57-.16-.38-.59-.39-.74-.06-.1.22.03.55.14,1.63Z" fill="#fef6ec"/>
  <path d="m739.92,275.53c6.64,10.2,11.29,21.1,11.72,33.48l-1.08-.06c-6.95-12.63-15.56-23.83-27.58-32.1-.94-.65-1.99-1.14-2.99-1.71-.31-.24-.62-.48-.93-.73-.12-.21-.3-.35-.53-.42-.8-.99-1.61-1.96-3.29-1.55.56,1.17,1.22,2.01,2.33,2.46.14.26.35.4.64.42.31.36.61.71.92,1.07,6.52,8.61,11.22,18.04,13.08,28.76l-1.61-.23c-8.06-12.06-18.3-21.57-31.89-27.14-1.36-1.26-2.91-2.05-5.11-2.33.91,1.61,1.92,2.33,3.22,2.68,7.84,6.99,12.91,15.63,15.21,25.99-1.6-1.61-3.23-3.19-4.8-4.82-7.19-7.47-15.58-12.86-25.76-15.33-1.42-.34-2.72-1.17-4.07-1.78-1.06-.65-2.06-1.64-3.47-.7.56,1.17,1.47,1.68,2.71,1.69,7.3,4.88,13.11,10.96,16.47,20.62-11.21-7.72-22.15-13.15-34.73-14.45-1.2-.52-2.39-.88-3.54.18.81,1.32,2.15,1.41,3.43,1.63,6.68,2.61,11.59,7.23,15.95,14.45-9.96-5.01-19.34-7.99-29.51-7.31-1.53-.48-3.03-.43-5.06.18,1.66,1.54,3.21,1.6,4.79,1.58,3.41,2.25,7.75,3.12,10.19,6.82-.2.29-.4.58-.59.88-8.88-1.73-17.76-2.41-26.62.17-1.27.15-2.88-.5-3.62,1.34,1.45.78,2.71.69,3.98.3,3.06.37,6.08.88,8.83,2.4-.04.34-.08.69-.12,1.03-11.79,1.6-22.41,6.17-32.3,12.63-.86.27-1.75.46-2.25,1.34-1.48-.3-2.35.4-3.12,1.68,1.75.65,2.77-.11,3.72-1.08.81-.31,1.63-.63,2.44-.94,13.91-3.62,28-5.83,42.42-5.48,15.71.39,30.83,2.97,45.77,8.46,23.65,8.69,43.11,22.46,56.51,43.7,15.17,24.03,20.01,50.23,12.84,78.13-1.65,6.41-3.93,12.64-7.18,18.45-.58.11-1.17.21-1.75.32,2.79-17.87,1.41-35.56-2.17-53.17-.09-1.86.58-3.93-1.46-5.51-.58,2.06-.62,3.85-.21,5.66-1.4,10.63-4.61,20.64-10.3,29.78l-1.13.28c3.6-19.31,1.78-38.36-2.83-57.27.25-2.5-.7-4.6-2.12-6.57-.54,2.3-.14,4.43.68,6.52.6,13.59-2.9,26.11-9.87,37.82,2.35-18.97.92-37.41-6.25-55.2-.12-.54-.23-1.08-.35-1.62-.16-1.33-.35-2.64-2.03-3.67-.12,1.62-.26,2.7.36,3.72.2.67.4,1.34.6,2,1.52,12.91-1.6,25.06-6.02,37-.6.05-1.19.09-1.79.14,1.83-17.93-2-34.61-10.85-50.23-.31,6.61.52,13.13-.18,19.66-.69,6.43-1.99,12.7-5.1,18.71-.03-17.95-4.77-34.44-14.83-49.29-.12-1.23-.79-1.8-2.12-2.1-.05,1.45.42,2.25.99,3.01,3.34,10.95,4.07,21.96.81,33.07-.58-.01-1.16-.02-1.73-.03-1.47-15.14-9.18-32.51-17.3-38.29,1.11,4.99,3.06,9.38,3.41,14.19.35,4.67.44,9.26-.89,14.03-3.58-9.89-7.26-19.7-15.3-26.97-1.19-1.85-2.81-3.24-4.68-4.35-.29-.26-.53-.66-1.02-.38-.25.51.1.73.46.94.99,1.68,1.98,3.35,2.96,5.03,1.53,4.46,3.11,8.91,2.31,14.73-5.84-8.7-11.98-15.94-20.89-20.18-.56-.81-1.37-1.11-2.31-1.18l.03.05c-.27-1.69-1.16-1.82-2.54-1.24.43,1.31,1.33,1.66,2.23,2,.34.26.67.51,1.01.77.27.16.54.31.81.47,2.49,2.68,4.67,5.52,5.65,10.05-9.68-5.93-19.45-9.53-30.07-10.51-1.26-.13-2.52-1.4-4.18.1,1.32,1.03,2.5,1.68,3.91,1.95,17.65,8.37,30.3,21.89,39.03,39.02,10.68,20.95,14.82,43.35,11.06,66.6-4.5,27.84-15.97,52.35-37.78,71.16-5.17,4.46-10.69,8.47-16.99,11.26-.6-.08-1.21-.16-1.81-.25,11.57-12.18,20.9-25.84,27.53-41.57-7.22,5.14-14.28,10.26-22.83,12.92,11.64-12.24,21.9-25.31,28.18-41.11.52-.76,1.05-1.53,1.57-2.29.38-.63.52-1.12-.53-.96-.63.77-1.25,1.55-1.88,2.32-5.23,5.34-11,9.98-17.46,13.74-1.55.9-3.01,2.1-4.95,2.08-.73-.29-1.46-.57-2.19-.86,11.38-11.47,20.17-24.63,25.97-39.74.25-.55.64-1.11-.03-1.59-.57.01-.81.39-1.01.82-7.57,8.91-16.34,16.19-27.52,20.34,11.88-13.01,20.95-27.45,24.91-44.77-7.22,10.17-15.57,18.89-27.6,23.57,9.87-11.57,17.46-24.22,20.13-39.37.14-.82.28-1.65.42-2.47.86-.69,1.23-1.45.32-2.39-.97.57-1.39,1.38-1.25,2.47l-.4,1.66c-4.27,6.78-8.93,13.2-15.85,17.59-2.07,1.31-3.98,2.95-6.97,3.19,9.21-11.4,15.27-23.65,14.68-38.42-3.3,9.26-8.4,17-17.14,22.06-.91-1.32.06-1.85.42-2.43,5.95-9.62,8.8-19.84,6.27-31.16-.18-.8-.19-1.64-.28-2.47.12-1.13-.03-2.11-1.31-2.58-.67.89-.61,1.68.21,2.42-.22,7.71-2.88,14.35-8.54,19.79,1.8-7.1,2.05-14.11-.24-21.06-1.76-5.35-3.71-10.62-8.96-13.71-2.5-4.02-6.65-5.01-10.84-5.95-.55-2.51-2.8-2-4.35-2.13-13.23-1.06-25.73,1.4-37.29,8.09-.51.3-.88,1.07-1.85.43,1.19-3.42,3.73-6.02,5.78-8.93.25-.09.47-.23.65-.42.99-.32,1.64-1.01,2.06-1.94.13-.24.26-.48.4-.75-.31.11-.58.21-.85.31-.69-.03-1.32.09-1.74.73-.5.31-.99.62-1.49.94-10.09,3.82-16.75,11.54-23,20.97-.58-7.27,2.5-12.51,4.91-17.93.25-.42.51-.83.76-1.25.34-.38.69-.76,1.03-1.14.59-.08.84-.44.82-1.01.2-.18.41-.37.62-.56-.54-.4-.75-.17-.79.4-.98-.26-1.58.2-1.98,1.04-.2.07-.34.21-.43.4-.3.26-.6.51-.9.77-9.83,6.85-16.02,16.5-21.02,28.34-1.6-10.17,1-18.43,4.46-26.68-11.38,9.2-16.86,21.87-21.66,35.92-2.01-9.57-.62-17.98,1.89-26.31.62-2.06,1.33-4.1,2-6.14.46-.72.92-1.44,1.38-2.16.65-.39.81-.98.73-1.69.43-.3.82-.62.23-1.12-.2.24-.39.49-.59.73-.99.37-1.48,1.18-1.83,2.11-.25.38-.51.76-.76,1.14-11.41,12.82-17.15,28.13-19.66,45.95-3.11-8.99-3.13-17.15-2.21-25.42.52-4.63,2.48-8.98,2.56-13.68,1.06-.25,1.08-1.24,1.42-2.01.6-.64.94-1.29-.12-2.04-.42.71-.82,1.39-1.23,2.07-.27.45-.53.9-.8,1.35-10.48,15.24-14.83,32.35-15.7,50.65-5.94-11.5-5.31-23.81-4.75-36.27-9.35,15.61-11.4,32.77-10.96,50.58-7.02-12-8.22-24.96-6.63-38.42.93-1.06,1-2.16.18-3.4-.8,1.1-1.55,2.12-1.39,3.5-4.31,13.12-7.7,26.4-7.42,40.38.09,4.65.01,9.31.01,14.97-5.79-11.26-8.56-22.35-8.06-34.26.53-1.72.46-3.42-.12-5.12-.62,1.68-1.8,3.15-1.41,5.02-1.94,8.41-3.34,16.92-4.06,25.51-.72,8.56-.26,17.17-.47,25.81-4.93-8.79-7.57-18.2-7.82-28.27.37-1.73.35-3.42-.29-5.1-.6,1.69-1.85,3.12-1.46,4.99-4.26,17.14-6.24,34.46-4.26,52.11-.65.07-1.3.14-1.95.21-8.76-21.29-9.94-43.32-4.53-65.38,3.48-14.19,10.44-27.16,19.43-38.88,23.85-31.07,56.08-47.07,94.26-52.18,22.34-2.99,44.2-.3,65.58,6.6,3.92,1.26,7.72,2.86,11.58,4.3.39.51.92.65,1.53.61.34.33.68.7,1.12.13-.19-.23-.38-.46-.58-.69-.26-.65-.71-1-1.43-.97-4.23-3.18-8.33-6.54-12.71-9.49-8.66-5.84-18.28-9.35-29.44-10.95,4.82-3.03,9.37-3.82,14.16-3.77,1.2.39,2.37.58,3.57-.17-.81-1.57-2.09-1.52-3.41-1.4-10.23-2.71-20.52-3.25-30.89-.81-.03-.78-.05-1.55-.08-2.33,3.35-3.46,7.38-5.76,12.01-7.03,1.8.05,3.52-.16,5.49-1.52-2.17-.5-3.84-.64-5.55-.2-11.86-.58-22.84,2.28-32.95,8.48-.23-.21-.46-.42-.69-.63,4.38-7.05,9.89-12.87,17.65-16.24,1.25-.12,2.37-.52,3.37-1.41-1.11-.73-2.15-.54-3.21-.09-14,1.99-26,8.2-36.83,17.25,3.21-8.99,8.75-16.25,16.14-22.19,1.11-.52,2.43-.81,2.63-2.35.46-.1.91-.19,1.46-.31-.79-.81-1.18-.43-1.51.26-1.18-.13-2.18.23-2.98,1.11-13.75,4.47-25.2,12.43-34.93,23.01-.57,0-1.14-.01-1.7-.02,3.52-10.56,10.04-19.17,17.68-27.04.53-.36,1.06-.73,1.58-1.09.17-.18.51-.47.47-.54-.24-.44-.59-.55-.96-.1-.54.39-1.08.78-1.62,1.18-14.12,5.64-24.66,15.74-34.08,27.26-.93,1.14-1.5,2.6-2.95,3.27.47-.99.51-2.03.39-3.09,2.51-10.96,8.11-20.27,15.32-28.72.53-.32,1.23-.56.5-1.46-.4.2-.81.39-1.22.59-11.77,6.56-21.36,15.59-29.51,26.22-2.2,2.87-4.28,5.82-6.7,8.58,1.13-12.5,6.93-23,14.08-32.93.55-.07.75-.49.91-.94.31-.36.61-.73.92-1.09.48-.24.82-.57.85-1.15.37-.19,1.05-.24.36-.88-.21.22-.42.43-.62.63-.42.19-.83.38-1.25.57-.33.28-.66.55-.99.83-1.02.36-2.01.76-2.61,1.75-13.81,10.32-25.17,22.93-34.77,37.34.23-11.79,5.81-21.51,11.32-31.25-2.52-2.31-3.78.17-5.07,1.23-8.78,7.24-16.39,15.6-23.06,24.81-3.01,4.15-5.94,8.36-9.37,12.47-.12-3.9.56-7.66,1.99-11.36,2.71-7.01,6.37-13.53,10.29-19.91.4-.42.81-.84,1.21-1.26.48-.08.66-.4.7-.85.35-.23.7-.45.44-.94-.49-.3-.75.07-1.04.34-.72.25-1.39.56-1.66,1.37-.22.08-.38.22-.48.43-16.64,11.63-30.11,26.2-40.55,43.59l-1.59.04c9.63-37.26,33.8-61.19,68.98-74.83,22.98-8.91,46.85-11.13,71.03-6.86,42.47,7.5,77.25,27.97,102.96,63.05,2.16,2.94,4.29,5.9,6.44,8.85-.02.31.05.59.21.86.34,1.73,1.13,3.18,2.74,4.51.37-2.01-.39-3.34-1.33-4.62-.24-.49-.48-.99-.72-1.48-3.76-14.66-10.57-27.75-21.11-39.55,4.75.37,7.76,2.91,11.21,4.33l1.11,1.08c.33.73.91,1.07,1.69,1.13.14.82.65,1.31,1.39,1.61.38.29.76.57,1.13.86.13.15.26.3.23.26.04.03-.13-.09-.3-.2.07-.58-.19-1.02-.62-1.38-.11-.78-.44-1.43-1.1-1.89-.25-.25-.49-.51-.74-.76l-1.62-1.62c-5.77-7.51-13.18-12.85-21.85-16.52.02-.49.05-.98.07-1.47,5.94-1.36,11.46.26,16.92,2.36.51.52,1.08.74,1.78.41.14.61.41.87.96.36-.25-.19-.5-.37-.75-.55-.35-1.02-1.18-1.48-2.11-1.83-8.38-7.14-18.19-11.02-28.96-12.74.03-.45.05-.9.08-1.34,6.84-2.44,13.84-2.96,20.99-1.7,1.29,1.05,2.74,1.48,4.67,1.41-1.29-1.9-2.86-2.53-4.66-2.8-10.85-6.31-22.62-9.1-35.13-9.06,3.82-4.58,16.51-7.61,26.17-6.28,1.14.49,2.26.84,3.43-.17-1.19-.62-2.25-1.31-3.58-1.27-4.8-1.1-9.29-3.19-14.15-4.14-4.25-.83-8.51-1.16-12.83-1.13-4.13.03-8.26,0-13.1,0,8.73-6.09,17.94-8.93,27.96-9.49,1.14.51,2.3.65,3.67.19-1.06-1.17-2.17-1.63-3.54-1.46-15.06-3.57-30.13-4.08-45.46.17,3.8-6,18.48-12.21,29.58-13.28,1.12.14,2.24.3,3.33-.68-1.21-.37-2.3-.54-3.45-.27-7.94-.57-15.88-1.17-23.86-.75-7.97.42-15.73,2.03-23.63,3.46,7.14-6.37,15.5-10.28,24.63-12.71,3.07.05,6-.56,9.5-1.8-3.66-.45-6.62-.61-9.6-.24-13.72-.36-27.33.43-40.69,3.83-1.07.27-2.23.75-3.35.05l.1.07c7.52-6.43,16.39-9.95,25.91-12.1,1.93-.04,4.01.57,5.95-1.2-2.13-.99-3.9-.89-5.69-.54-16.99-1.23-33.8-.37-50.27,4.4l.1-.47-.47-.1c12.16-8.95,26.06-13.84,40.79-15.76,30.1-3.94,57.1,3.89,80.23,23.68,16.46,14.08,26.96,32.08,33.58,52.67,5.8,18.05,8.09,36.47,8.17,55.29-.56,3.03-.33,6.05.11,9.09.57-3,1.88-5.85,1.49-9.01,2.45-13.25,5.39-26.41,10.09-39.03,9-24.16,20.7-46.77,39.61-64.92,17.95-17.23,38.73-29,63.67-32.46,13.29-1.84,26.41-.84,39.41,2.74,8.59,2.37,16.47,6.07,23.96,10.73,1.52.94,3.27,1.68,4.59,4.04-16.35-4.65-32.46-6.96-48.94-5.55-1.4-.46-2.76-.72-4.07.47,1.22,1.42,2.55,1,3.81.95,9.59,1.92,18.18,5.98,25.87,12.01.64.51,1.42.88,1.78,2.17-15.3-4.26-30.68-6.44-46.39-5.61-1.77-.5-3.54-.75-5.62.14,1.89,1.3,3.63,1.46,5.45,1.19,11.11,2.1,20.53,7.27,28.26,15.71-17.64-5.5-35.44-7.84-54.7-3.96,13.35,1.85,24.67,6.07,33.81,15.21-8.8-1.44-17.5-3.12-26.46-2.9-9.05.22-17.77,1.92-26.41,4.68,12.2.46,23.57,3.16,33.23,11.21-16.17-2.64-31.67-.23-46.81,5.29-2.01.31-3.99.66-6.23,2.98,2.65-.58,4.34-.96,6.04-1.33,9.61-1.07,18.59.96,27.09,5.44,0,.53-.01,1.07-.02,1.6-14.17-.46-27.4,2.82-39.73,9.96,4.23.29,8.43-.51,12.58.05,3.97.53,8.03.95,12.5,3.82-12.36,1.04-22.55,5.12-31.84,11.97,5.25,1.16,10.68-.7,15.74,1.33-.07.36-.13.73-.2,1.09-10.02,3.12-18.36,8.83-26.62,16.9,5.15.09,8.46-2.57,13.56-2.75-10.77,9.44-18.76,19.79-24.72,32.36,3,.22,3.82-1.67,4.95-2.84,14.44-14.96,30.55-27.77,48.86-37.67,24.1-13.02,49.6-21.43,77.25-21.55,15.15-.06,29.79,2.74,44.19,8.15,25.4,9.53,44.22,26.05,56.64,49.86,6.74,12.92,10.62,26.79,10.75,41.52-.58,0-1.16.01-1.75.02-6.35-16.68-14.9-31.99-27.94-44.67,1.79,10.28,5.23,20.15,4.61,30.63-.52,0-1.04,0-1.56,0-6.74-16.71-15.04-32.52-26.87-46.28-.19-.4-.37-.8-.55-1.18-1.07.98-.67,1.48-.31,1.98,4.93,11.72,7.79,23.85,7.19,36.65-.54-.06-1.07-.12-1.61-.18-2.74-7.81-5.85-15.45-10.14-22.55-4.92-8.13-10.38-15.83-17.46-22.26-.53-.43-1.04-.69-1.54.21.19.34.41.72.63,1.1,4.65,10.69,8.13,21.66,8.31,33.46-.61.03-1.22.05-1.83.08-6.08-14.49-14.69-27.18-26.83-37.32-.88-.74-1.86-1.35-2.79-2.02-.06-.28-.22-.47-.48-.59-.79-1.69-2.44-2.25-3.94-3.01-.2-.48-.36-.57-.36-.27,0,.07.28.14.42.21.7,1.55,1.38,3.12,2.93,4.05.07.23.22.4.44.5Zm-247.57,64.32c-.43.28-1.14.41-.7,1.19.71.51,1.03-.05,1.41-.45.22-.13.38-.31.49-.54.78-.38,1.1-1.04,1.14-1.87.13-.23.25-.46.44-.8-.32.2-.54.34-.76.48-.51,0-.83.22-.88.76-.38.41-.76.82-1.14,1.23Zm113.16-55.83c-.21.17-.41.33-.63.5.67.28.69-.08.57-.57.66.41,1.09.01,1.5-.43,1.05-.4,2.13-.74,2.57-1.95.51-.29,1.25-.43,1.1-1.22-.13-.67-.68-.38-1.1-.3-1.33.64-2.36,1.6-3.15,2.83-.53.2-.88.52-.86,1.13Zm-7.49,26.48c-.38.5-.81,1-.11,1.71.32-.27.66-.54.99-.81.36-.4,1.06-.69.5-1.47-.68-.4-1.04.06-1.37.57Zm-1.59,4.2c.22-.47,1.07-.69.6-1.48-.83-.23-.82.67-1.27.93-.43.38-.33.74.11.98.08.05.37-.28.57-.44Zm60.39,26.96c-.27-.26-.48-.66-.96-.4-.26.48.07.73.38.98.15.77.39,1.48,1.19,1.81.52.2.87.07,1-.57-.3-.33-.62-.69-.94-1.05.01-.46-.25-.68-.67-.77Zm128.13-57.68c.43.19.42,1.31,1.37.59-.3-.37-.58-.71-.86-1.06.07-.52-.03-.95-.63-1.11-.66.58-.44,1.09.13,1.58Zm-343.07-19.57c.47-.27,1.21-.3,1-1.15-.74-.32-1.17.08-1.56.6-.46.29-1.13.51-.4,1.31.33-.26.64-.51.96-.76Zm178.62,224.61c-.08.42-.36.97.31,1.08.75.12.89-.64,1.24-1.09.21-.27.43-.53.64-.8.48-.51,1.07-1.01.22-1.79-.31.38-.59.73-.87,1.07-.68.34-1.31.73-1.54,1.53Zm6.15-55.89c-.08.45-.1.86.57.74.11-.29.21-.58.32-.87.92-.39,1.07-.95.39-1.72-.65.48-1.22.99-1.29,1.85Zm-194.09-71.07c-.04.66-.85,1.36.24,2.08.86-.42.94-1.36,1.26-2.14.46-.65.84-1.31-.17-2.13-.64.62-1.28,1.18-1.33,2.18Zm377.17-63.32c-.24-.36-.4-.85-.95-.6-.41.53-.11.92.18,1.3.31.53.62,1.06.94,1.59.33.5.51,1.26,1.31,1.09.68-.14.4-.71.32-1.15-.3-.98-.96-1.67-1.8-2.23Zm-47.81-21.69c.36.39.41,1.24,1.29.85.47-.85-.36-1.04-.7-1.46-.2-1.07-.66-1.71-1.87-1.23,0,1.02.32,1.66,1.28,1.84Zm-136.44-31.02c.39-.11.89-.1.87-.71-.27-.08-.54-.17-.81-.25-1.18-.02-2.11.37-2.59,1.57,1.1.65,1.88.29,2.53-.61Zm-5.98,16.38c.58-.2,1.21-.61,1.13-1.16-.1-.66-.76-.74-1.36-.38-1.87.62-3.65,1.39-4.77,3.15-.22.14-.44.28-.67.43.67.37.62-.08.61-.49,1.99.46,3.53-.53,5.06-1.55Zm-225.33,5.87c-2.02,1.26-4.93,1.85-4.86,5.5,2.8-1.21,3.97-3.23,4.86-5.5Zm302.86,91.01c.89-1.64.57-2.66-.99-3.27-.91,1.22-.29,2.08.99,3.27Zm-261.93-.69l-.18-.17-.05.26.22-.09Zm324.62-85l.24.16.02-.29-.26.13Zm-45.57-2.3l-.2.22.31.06-.11-.27Zm-86.19,186.59c.34-.19.35-.4.03-.62-.34.19-.35.4-.03.62Z" fill="#4d5c2c"/>
  <path d="m819.5,767.01c.45-1.26.9-2.52,1.35-3.78.65-.46.65-.95.05-1.46-.31-15,10.28-26.14,26.61-27.59-2.13,8.95-4.5,17.54-11.49,24.02-2.71,2.51-5.59,4.78-9.18,5.79-2.64.74-4.3,2.31-5.13,4.82-1.42,4.31-4.01,8.37-3.07,13.22,2.67.93,5.44,0,8.17,1.07,1.65,2.96.12,6.04,0,9.08-.3.23-.31.49.03.67.32.17.54,0,.6-.37,2.58-2.09,5.17-4.18,7.86-6.36v-20.87c1.45-1.82,3.32-2.78,5.61-4.57v18.18c-.32.56-.34,1.11.1,1.63.77-.2,1.42-.55,1.61-1.41,22.82-20.59,41.45-44.53,56.82-71.08,9.32-16.1,16.85-33.03,23.16-50.52,15.94-44.25,23.38-89.79,20.64-136.84-1.4-24.01-5.17-47.65-11.79-70.8-4.21-14.7-9.32-29.11-15.4-43.13-14.09-32.55-33.13-62.02-56.1-89-.32-.37-.55-.83-.82-1.24.14-.19.28-.37.43-.55,6.5,4.68,12,10.49,17.44,16.27,15.47,16.46,28.63,34.64,39.6,54.4,7.46,13.44,13.45,27.56,18.99,41.87,12,30.96,18.17,63.14,20.22,96.22,2.02,32.5-.84,64.58-7.98,96.29-4.84,21.49-11.8,42.3-20.4,62.61-22.46,53-57.36,96.1-103.55,130.12-25.15,18.53-52.99,31.94-82.76,41.29-33.06,10.38-66.91,14.88-101.59,13.22-21.37-1.02-42.43-3.95-63.12-9.32-44.18-11.46-83.94-31.82-119.53-60.28-34.13-27.3-61.47-60.33-81.91-98.99-6.91-13.08-12.75-26.62-17.97-40.5-8.55-22.71-13.18-46.22-16.31-70.13.82-.76.53-1.4-.22-1.98-3.31-31.18-1.06-62.02,5.49-92.62,1.11-5.17,2.29-10.29,3.8-15.35.67-.05,1.33-.1,2-.14-1.79,15.88-3.45,31.77-4.02,47.75-1.14,31.8,1.79,63.16,9.87,94.01,14.65,55.99,42.86,104.1,83.83,144.83.87.86,1.51,2.13,3.45,2.37-18.59-50.96-23.7-103.28-18.35-156.8.11-.1.31-.22.3-.31-.03-.27-.15-.52-.23-.78.6-5,1.2-10,1.81-15,1.98-.45,4.07.59,6-.48,13.76-.06,27.25,1.28,40.06,7.34-.5,17.15.42,33.9,2.63,51.42-15.14-4.28-29.35-1.52-43.52,1.94-1.63-.07-2.99.55-4.83,1.62,2.05.17,3.48.66,4.69-.52,11.02-.63,22.05-1.36,33.02.6,3.36.6,6.7,1.35,10.05,2.04l.33.25.42-.05c2.1,3.89,1.78,8.31,2.64,12.46,2.41,11.55,4.41,23.18,8.06,34.44.38,1.19.99,2.4.6,4.1-13.78-2.62-27-.09-40.04,4-1.94,0-3.63.71-5.2,1.78-.59,0-1.16.02-1.28.77.57.37,1.12.21,1.66-.06,1.6-.22,3.26-.2,4.75-.95,14.09-2.09,28.16-2.19,42.64.41,5.02,15.48,10.58,30.88,18,46.14-11.09-.25-21.15,2.19-30.78,6.79,11.21-1.46,22.35-2.76,33.67-1.18,3.75,6.15,6.59,12.74,10.74,18.63,9.34-.89,18.47-.87,27.6-.23.68.69,1.46.69,2.29.33.64.07,1.29.41,2.21-.29v-88.96c-2.88-.86-6,.3-8.31-1.94-2.37-2.43.71-8.5-5.49-8.41-2.7,1.23-2.87,3.5-2.74,5.69,3.28,5.65,6.45,11.11,10.04,17.28h-24.6c4.85-5.26,6.3-11.83,10.87-16.48.66-6.66,2.77-9.97,6.84-10.02,6.01-.08,6.94,4.67,7.9,8.99,1.76.95,3.37.9,5.4.42v-33.35c-4.06-3.82-11.59-4.05-13.01-11.05-.77-3.81-1.18-7.85,1.01-11.92h65.54v-41.86c4.17-1.91,121.45-2.16,126.37-.34v15.96h54.98v25.26c21.05,4.51,41.07,10.71,61.36,15.27.98,5,.45,9.27.34,13.39-3.01,3.05-7.09,3.45-10.5,5.65v59.04c-1.37,2.03-2.99,2.96-5.5,3.16v-63.51c-15.73-3.46-31.11-6.84-47.01-10.34v82.49c-1.86.61-3.25,1.06-5.23,1.71v-82.82h-222.46v127.6c1.96,1.19,4.42.62,6.6,1.3.71.59,1.49.61,2.32.33,2.12.34,4.25.69,6.37,1.04,1-2,.62-4.04.62-5.99.05-21.96.16-43.91.02-65.87-.07-11.55,7.96-21.82,18.06-23.82l.39.11.32-.26c13.61-3.5,29.18,6.41,29.22,23.27.06,23.24,0,46.49,0,69.73,0,3.65.14,7.29.21,10.94-.13.63.15.84.74.69,13.53,2.55,27.22,3.81,41.35,5.55,1.5-7.49,2.94-14.74,4.39-21.99.36-.62.23-1.07-.45-1.33-4.79-1.63-5.26-2.84-2.73-7.77,9.02,0,18.22,0,27.41,0,2.67,4.34,2.33,5.57-2.2,7.79-.81.11-1,.54-.65,1.25,1.4,7.76,2.81,15.51,4.24,23.46,8.76.45,17.14.53,25.53.38.71.2,1.17,0,1.24-.8,1.46-7.68,2.91-15.37,4.44-23.39-1.61-1.06-4.15-1.22-4.6-3.65-.35-1.87-.28-3.66,2.29-5.52h24.58c.38.02.76.04,1.14.06,3.99,3.57,3.57,6.05-1.39,8.19-.81.04-1.04.39-.61,1.11,1.54,7.81,3.09,15.63,4.7,23.81,9.53-.67,18.81-.55,28.66-1.66v-57.75c3.84,6.73,5.79,13.6,5.49,21.28-.46,11.79-.12,23.61-.12,35.75,6.26-.01,12.11-.67,18.27-1.48.16-6.38-2.55-12.42-1.61-18.5,3.11-1.4,6.07-.12,8.97-1.16.95-3.41-1.43-6.17-1.94-9.41-2.3-.92-4.57-1.8-6.82-2.74-4.8-2.01-8.46-5.33-10.7-10.02-2.19-4.59-4.67-9.06-6.07-13.99.31-.16.43-.4.35-.74,12.21.45,23.03,8.16,24.04,19.38.06.69.67,1.45.78,2.27-.19,1.55-.55,3.16,1.39,4.42,1.11-2.31.71-4.37.41-6.42.09-3.82-.07-7.61-.77-11.8-14.58-8.95-13.73-22.68-11.08-37.1,11.28,2.22,18.99,16.68,16.26,29.87-.39.3-.44.68-.24,1.11-2.72,4.28-1.94,8.88-1.34,13.51.27,2.13.1,4.32.13,6.49-.8.67-.73,1.24.18,1.74,1.05-.19,1.07-.95,1.01-1.76Zm-10.28.28c.24.09.49.18.78.29-.14-.25-.26-.47-.39-.68.09-.48-.08-.84-.5-1.08-.52-.63-1.03-1.26-1.55-1.88-.05-.55-.31-.95-.83-1.16-.31-1.04-.84-1.78-2.13-1.92.05,1.41.81,1.98,1.43,2.63.28.35.56.7.84,1.04.5.59.99,1.19,1.49,1.78.05.54.26.95.87.99Zm-6.22-7.63c.45.4.88.9,1.52.04-.26-.3-.54-.61-.81-.92-.32-.35-.64-.7-.96-1.05-.22-.57-.56-.97-1.24-.91-.29-1.6-1.12-2.5-2.96-2.62.29,1.93,1.22,2.67,2.71,2.8-.14.7.27,1.11.76,1.48.33.39.66.78.98,1.17Zm28.1-7.5c.22-.3.43-.61.65-.91.43-.59.85-1.18,1.28-1.77.23-.42.47-.84.7-1.27.43-.24.84-.48.23-.97-.18.23-.36.46-.54.69-.59.04-.88.42-1.05.94-.49.55-.97,1.1-1.46,1.65-.2.32-.41.63-.61.95-.33.44-1.08.72-.54,1.5.84.39.95-.44,1.34-.8Zm-5.52,7.93c.95-.88,2.22-1.64,1.57-3.42-1.41.74-1.76,1.82-1.97,2.99-.37.25-.66.54-.38,1.04.59.22.66-.23.79-.61Zm-14.91-29.42c-.07-.76-.05-1.55-.79-2.08-.86.88-.49,1.68.12,2.48,1.4,5.53,2.84,11.04,5.18,16.28-.26-5.9-1.84-11.43-4.51-16.68Zm-21.24-82.35c-1.66-.02-3.33-.07-4.99-.07-78.61,0-157.22.02-235.83.03-.52-.09-1.13-.41-1.24.42.11.77.58,1.04,1.2,1.14,3.8,1.89,7.06,4.66,11.82,4.65,70.72-.13,141.45-.12,212.17-.14,4.64,0,9.28,0,13.45,0,2.07-1.91,4.01-3.03,4.48-5.36.1-.91-.4-.9-1.05-.68Zm14.96,160.54c1.05-.3,2.07-.63,2.59-1.75-.88-1.01-1.72-.3-2.55-.02-61.27,8.01-122.58,8.76-183.92.88-.34-.39-.71-.46-1.13-.13-17.94-2.59-35.82-5.63-53.85-7.65-25.14-2.81-50.14-2.55-74.92,3.12-.45-.12-.93-.03-1.02.42-.14.69.33,1.02,1,1.05,4.1,2.86,8.35,5.47,12.7,7.93,15.33,8.68,31.13,16.26,47.62,22.54,8.66,3.29,17.39,6.31,26.3,8.59,15.55,3.99,31.34,6.9,47.37,8.51,36.82,3.71,72.89.3,108.41-10.16,25.53-7.52,49.15-18.92,71.42-33.33Zm-190.82-173.57h115.96v-36.72h-115.96v36.72Zm2.87,105.52c0-7.33.23-14.45-.06-21.55-.36-8.77-2.84-14.26-12.65-17.12-8.08-2.36-16.78,3.75-18.11,10.7-1.74,9.14-.54,18.48-.61,27.97h31.43Zm118.79-125.57c-.99,7,.41,13.78-1.03,20.66h50.12v-20.66h-49.09Zm13.46,190.45c-1.37-8.61-2.47-16.62-4.26-24.53h-11.48c-.95,8.31-3.17,16.24-3.76,24.53h19.49Zm-61.44-24.4c-3.51-.86-7.11-.33-11-.2-1.42,7.73-2.81,15.35-4.3,23.47,6.81.33,13.05.63,19.53.94-.83-8.41-2.5-16.2-4.23-24.22Zm106.35-127.06c14.21,4.26,28.61,6.95,42.97,9.87,3.52.72,6.34-.78,9.71-2.78-17.54-3.03-33.83-8.62-50.57-11.79-.76,1.7-1.42,3.18-2.11,4.71Zm-176.16,103.08c.85-2.37.51-4.02-1.77-4.92-1.95.29-2.99,1.33-3.12,3.37.8,2.33,2.36,2.75,4.89,1.55Zm-147.47,14.23c5.35-.34,5.84-.54,7.3-3.04-2.68.48-5.04,1.13-7.3,3.04Zm357.75-15.13c1.08-.75,2.32-1.2,1.26-2.65-.82.49-1.73.89-1.26,2.65Z" fill="#432c13"/>
  <path d="m766.5,712v43.79c1.73,1.13,3.89-.07,5.44,1.67.68,1.75.77,3.64-.56,6h-123.2q-.87-3.03-.35-6c1.49-1.72,3.81-.59,5.73-1.64v-45.02c-2.42.51-4.55.58-6.65.34-6.85-.79-10.4-6.89-7.49-13.1,3.38-7.23,6.92-14.37,10.52-21.81h118.38c.15.11.58.25.66.51,2.57,7.62,7.98,14,9.74,21.96,1.73,7.85-.77,11.39-8.66,12.55-.81.12-1.66,0-2.5,0-.8-.34-1.08.02-1.06.78Zm-59.11-8.67c-2.67.28-5.46-.61-8.26.56,2.02,2.52,3.09,2.5,8.46.22.23-.14.66-.28.65-.41-.02-.61-.45-.49-.85-.36Zm56.13,1.65c5.55,2.75,8.07,2.42,10.99-1.75h-10.91c-.56-.09-1.17-.29-1.22.36.05.96.52,1.26,1.14,1.39Zm-108.08-.11c.7-.17,1.09-.61,1.16-1.32-.26-.48-.66-.58-1.16-.41l-10.88.09c-.69-.19-1.21-.15-1.01.8,3.86,3.3,6.66,3.5,11.88.84Zm27.93.3c6.46,2.32,9.95,1.89,12.79-1.94h-12.57c-.55-.06-1.19-.3-1.28.52.06.77.49,1.14,1.05,1.42Zm52.4-.89c.4-.21.76-.49.44-.96-.1-.14-.52-.06-.79-.09-4.64.2-9.35-.62-13.93,1.01,4.74,3.17,9.5,2.87,14.28.04Zm-72.25.7c4.54,2.35,8.96,2.52,13.17-.77.37-.17.7-.41.42-.84-.08-.13-.46-.06-.7-.08-4.27-.02-8.54-.04-12.81-.06-.55-.05-1.23-.41-1.35.48.13.81.6,1.16,1.27,1.28Zm79.06-1.81c-.49-.16-.89-.07-1.17.4.05.7.44,1.18,1.02,1.53,4.38,2.29,8.75,2.48,13.1-.06.9-.18,1.31-.71,1.2-1.75-.41-.05-.85-.1-1.29-.15-4.29.01-8.58.02-12.86.03Zm22-22.73c-.48-.34-.94-.34-1.38.07h-7.83c2.29,6.44,3.51,12.6,6.19,18.34,4.29.41,8.38.3,12.81-.07-1.86-4.23-3.42-8.33-5.45-12.2-1.15-2.19-1.07-5.41-4.34-6.14Zm-42.28.26c-.81.11-1.02.57-.76,1.3.16,5.6.13,11.21.94,16.92,4.86.24,9.44.37,14.34-.11-1.11-6.23-2.16-12.08-3.24-18.11h-11.28Zm-21.74,7.31c-.12.09-.35.19-.34.25.05.25.17.49.26.74-.02,3.23-1.45,6.38-.74,9.8h17.71v-18.2c-5.54-.03-10.59-.45-15.8.32-.39,2.52-.74,4.8-1.09,7.08Zm-39.26,67.97h98.16v-47.44c-3.75,2.08-7.45,3.28-11.28,2.61-6.64-1.17-13.1-1.31-19.84-.16-5.12.88-10.56-.24-15.7-1.69-1.47-.41-3.12-.74-4.41-.16-6.03,2.75-12.44,1.33-18.65,2.01-3.43.37-6.61-.49-9.43-2.78-5.9,3.71-12.15,3.51-18.84,1.55v46.05Zm7.6-75.29c-2.25,6.02-4.47,11.94-6.79,18.13h15.19c1.78-5.97,3.07-11.86,4.19-18.13h-12.59Zm68.83-.05c1.28,6.5,2.42,12.33,3.57,18.18h15.23c-2.02-6.25-3.94-12.19-5.88-18.18h-12.92Zm-85.02-.27c-3,6.27-5.86,12.24-8.89,18.55h13.79c2.22-5.94,4.42-11.83,6.72-18.01-3.92-.85-7.52-.34-11.63-.54Zm44.7.37c-4.03-.35-7.63-.29-11.47.03-1.41,5.98-2.8,11.87-4.24,17.98h13.43c.75-5.97,1.47-11.68,2.27-18.01Zm14.27,22.88q5.07,2.95,6.53-.28c-2.22-.46-4.37-.46-6.53.28Z" fill="#432c13"/>
  <path d="m825.79,907.96c-2.43,3.21-4.98,5.96-7.78,7.99-1.32.15-2-.24-2.62-.85-13.96-13.63-30.33-16.39-48.27-9.99-7.62,2.72-13.66,8.13-18.4,14.73-9.67,13.46-11.34,28.38-6.99,43.98,4.27,15.34,14.56,25.73,29.56,30.2,15.87,4.73,30.76,1.59,43.45-9.7.85-.76,1.5-1.8,3.12-2.17,2.69,2.57,5.53,5.26,7.78,8.46-.65,2.71-2.81,3.88-4.58,5.28-13.76,10.93-29.6,14.04-46.59,11.57-21.31-3.1-36.02-15.58-44.47-34.78-5.17-11.73-5.49-24.51-2.74-37.27,6.7-31.04,35.48-50.01,66.7-45.07,12.01,1.9,23.91,6.93,31.86,17.61Z" fill="#432c13"/>
  <path d="m499.69,1005.37c-11.1,4.26-17.89,1.27-21.49-9.4-7.74,9.96-18.2,12.61-30.07,11.76-12.35-.89-24.26-11.33-22.26-26.63,1.32-10.13,7.97-17.4,18.44-20.23,5.02-1.36,10.12-1.93,15.31-1.92,5.8,0,11.61,0,17.31,0,3.01-12.03-4.9-20.71-16.96-21.48-7.59-.48-14.41,1.77-20.01,7.17-.94.91-1.68,2.07-3.26,2.64-2.4-3.03-4.84-6.12-7.3-9.23,10.06-10.45,22.44-13.59,36.26-11.6,16.1,2.32,24.48,11.7,24.94,27.98.33,11.65.14,23.31.15,34.97,0,2.37-.04,4.71,2.21,6.26,2.09.97,4.22-.03,6.6.11.51,3.13.3,6.24.13,9.61Zm-22.21-36.08c-7.24,0-14.2-.16-21.15.07-3.4.11-6.7,1.14-9.84,2.63-5.34,2.52-7.51,6.91-7.39,12.49.11,5.55,3.35,9.54,8.93,11.35,7.24,2.34,14.13,1.26,20.64-2.49,3.57-2.06,6.36-4.99,7.61-8.93,1.5-4.73,2.25-9.62,1.21-15.11Z" fill="#432c13"/>
  <path d="m910.51,996.08c1.14-.15,2.29-.29,3.76-.48.73,3.18.35,6.26.28,9.29-10.15,5.44-18.73,1.85-21.35-8.84-.31.1-.73.09-.9.3-8.12,10.19-19.01,12.63-31.24,11-8.31-1.11-14.62-5.43-17.97-13.15-4.58-10.59-1.33-23.58,8.17-29.57,6.56-4.14,13.79-5.49,21.34-5.64,6.46-.13,12.92-.03,19.24-.03,2.16-9.84-2.35-19.16-14.55-21.09-10.04-1.59-18.21,1.76-25.16,9.14-2.97-2.65-5.01-5.85-7.73-8.9,3.35-3.88,7.25-6.67,11.7-8.56,13.2-5.6,26.18-5.03,38.54,2.36,5.77,3.45,8.46,9.25,9.87,15.6.68,3.08.92,6.24.91,9.43-.03,10.99.03,21.98.06,32.97,0,2.52-.12,5.13,3.01,6.13.66.77,1.33.78,2.01.03Zm-18.41-27.01c-7.36.14-14.79-.41-22.21.55-1.81.23-3.61.65-5.36,1.17-7.01,2.08-10.14,6.76-10.22,14-.06,5.63,4.69,10.43,10.87,11.78,4.68,1.03,9.15.25,13.53-1.37,10.89-4.02,15.2-12.22,13.39-26.13Z" fill="#432c13"/>
  <path d="m1054.23,969.98h-59.69c-.49,10.17,5.25,19.86,14.87,24.01,12.64,5.44,23.92,2.54,33.99-7.05,2.85,2.19,5.15,4.9,7.14,7.68-.08,2.45-1.89,3.35-3.26,4.42-10.15,7.89-21.65,10.08-34.18,8.09-14.96-2.39-24.63-11.38-29.93-24.96-3.91-10.02-4.1-20.88-.28-30.8,7.37-19.12,25.02-29.99,46.29-23.76,17.31,5.06,23.74,17.86,25.03,35.45.15,2.11.02,4.25.02,6.92Zm-13-10.38c-.88-15.64-13.19-23.76-25.68-22.13-11.26,1.47-21.77,12.96-20.42,22.13h46.1Z" fill="#432c13"/>
  <path d="m557.5,926.06c22.96.41,39.87,18.19,39.78,40.95-.09,22.96-17.41,40.45-40.17,40.88-23.32.43-40.47-17.71-41.47-38.28-1.23-25.43,18.62-43.36,38.87-43.53,1,.91,2,.92,2.99-.02Zm-3.17,70.3c5.37-.02,8.88-.61,12.29-2.02,9.21-3.81,13.71-11.03,16.37-20.34,4.92-17.22-7.28-35.43-25.08-36.47-4.32-.25-8.75.18-12.59,2.23-16.93,9.06-19.88,24.73-13.86,40.29,3.93,10.16,12.86,16.19,22.87,16.31Z" fill="#432c13"/>
  <path d="m348.26,927.61v11.03c2.09-.53,2.61-2.29,3.61-3.44,10.83-12.42,31.3-11.53,41.44-2.1,6.58,6.12,8.67,14.18,8.83,22.66.29,16.16.08,32.33.05,48.5,0,.46-.28.92-.5,1.61h-12.31c0-2.17,0-4.28,0-6.4-.02-12.83-.02-25.67-.06-38.5,0-1.99-.11-4-.36-5.98-1.27-10.09-5.54-14.86-15.19-17.09-6.99-1.61-16.45,2.58-20.87,9.11-3.39,5-4.51,10.57-4.51,16.47-.01,13-.02,26-.03,39,0,.97,0,1.95,0,3.28h-12.72v-77.62c3.97-.93,8.05-.13,12.63-.54Z" fill="#432c13"/>
  <path d="m269.21,903.37h-38.5c-.93-4.04-.15-7.81-.53-11.48,4.14-.86,82.09-1.06,89.36-.25.61,3.63.33,7.35.26,11.58h-36.94v102.33c-4.64,1.02-8.87.36-13.64.63v-102.82Z" fill="#432c13"/>
  <path d="m478.3,560.17c-2.23,11.62-2.76,23.42-3.87,35.68-13.07-5.68-26.41-5.22-39.86-2.76-1.97-.7-4.01,1.12-5.96-.19,2.42-18.15,7.13-35.83,11.16-53.65.1-.43.6-.77.92-1.15,1.87-.64,4,.41,5.78-.87,11.89.25,22.7,4.21,33.34,9.73.54,3.69-1.3,7.28-1.23,11.04-.49.67-.62,1.39-.29,2.17Z" fill="#432c13"/>
  <path d="m971.43,894.03c-.16,2.8.08,5.64-.82,8.51-1.9.31-3.57-.59-5.3-.92-7.78-1.46-13.83,2.47-15.57,10.27-.29,1.29-.54,2.63-.57,3.95-.08,3.65-.03,7.29-.03,11.36,6.68.96,13.13.09,19.67.57,1.06,3.46.24,6.87.69,10.71h-20.35v67.28c-4.43.67-8.34.27-12.77.32v-67.57h-12.95v-10.82h12.66c.52-6.25.06-12.04.89-17.8,1.37-9.45,9.39-16.88,17.72-18.27,5.38-.89,10.82-1.82,15.92,1.21.26.4.53.8.79,1.21Z" fill="#432c13"/>
  <path d="m624.84,938.85c-4.22-.79-8.56-.05-13.08-.56-.95-3.31-.28-6.71-.48-10.48h13.79v-23.74h13.07v23.44h22.69c1.13,3.69.51,7.08.47,10.96h-22.75v50.64c6.04,8.21,9.59,8.88,22.51,4.17.72,3.55,2.07,6.93,1.37,11.22-8.73,3.71-17.79,4.57-26.69.34-6.22-2.96-9.74-8.53-10.15-15.42-.88-14.97-.17-29.96-.37-44.95-.02-1.8.33-3.63-.39-5.6Z" fill="#432c13"/>
  <path d="m461.46,488.04c10.84,1.56,20.98,5.04,30.6,11.05-4.73,13.52-7.89,27.17-10.53,40.95-.73.1-1.46.2-2.18.3-10.25-5.32-21.18-5.87-32.37-4.61-1.67-.99-3.61-.18-5.34-.8.1-.6.19-1.2.29-1.8.59-.14.77-.52.62-1.08-.01-2.49,1.14-4.65,1.87-6.95,3.78-11.89,7.95-23.63,12.86-35.1.46-1.07.48-2.33,2.1-2.21.65.48,1.35.52,2.09.26Z" fill="#432c13"/>
  <path d="m484.54,445.9c7.09,1.84,13.68,4.76,19.68,8.99,1.07.76,2.13,1.53,3.41,2.45-2.38,6.31-5.08,12.37-7.54,18.5-2.41,6-3.88,12.37-6.72,18.58-9.76-7.54-20.69-8.29-31.95-7.5-.68-.26-1.34-.15-1.98.15-.53-.8-.28-1.56.06-2.35,5.42-12.72,11.47-25.13,18.24-37.19.64-1.14,1.19-2.44,2.75-2.67,1.11,1.29,2.6,1.09,4.05,1.04Z" fill="#432c13"/>
  <path d="m696.81,471.04c-4.19,6.46-7.4,13.22-7.32,21.18.07,6.56,1.95,12.4,6.08,17.51,4.22,5.21,9.37,9.4,14.74,13.32,3.36,2.45,6.77,4.88,9.5,8.02,8.65,9.97,9.32,19.78,1.95,30.61-2.91,4.27-6.63,7.82-11.16,10.42-.21-.25-.43-.5-.66-.73,1.73-2.64,3.74-5.08,5.17-7.93,4.47-8.96,3.26-17.05-3.8-24.21-3.05-3.09-6.46-5.74-10.17-8.01-3.98-2.43-7.82-5.07-11.34-8.14-15.34-13.36-16.4-31.76-1.88-47.03,2.05-2.16,4.46-3.98,6.7-5.96.85.04,1.6.29,2.19.94Z" fill="#432c13"/>
  <path d="m480.43,444.12c-.35-1.12.43-1.87.9-2.72,5.85-10.48,12.29-20.58,19.15-30.43.76-1.09,1.5-2.22,2.78-2.79.24.55.66.81,1.26.77,5.78,1.6,11.12,4.09,15.95,7.66,1.46,1.08,3.05,2.02,4.45,4.54-5.55,9.84-10.73,20.46-15.34,31.85-7.17-6.24-15.9-7.94-24.97-8.63-1.37-.55-2.78-.35-4.19-.26Z" fill="#432c13"/>
  <path d="m888.71,1061.26c-15.97,1.02-31.96.64-47.94.99-52.12,1.15-104.25.98-156.38,1.08-1.31,0-2.68.35-4.25-.69-1.49-1.31-1.26-2.82.87-4.62,68.9-.21,138.16.63,207.41,2.11.1.37.19.75.29,1.12Z" fill="#432c13"/>
  <path d="m526.4,416.17c-4.06-4.93-9.66-6.77-15.66-7.81-.72-.48-1.49-.52-2.29-.26-1.31-.03-2.63-.06-3.94-.09-.39.05-.78.1-1.17.15.16-.64.16-1.39.51-1.89,6.66-9.51,13.97-18.52,21.56-27.29.51-.59,1.37-.87,2.06-1.29.42,1.7,1.83,1.25,2.97,1.37,7.04,3.45,9.32,5.13,13.28,9.95-5.31,9.03-10.68,18.17-16.06,27.31-.42-.05-.84-.11-1.26-.16Z" fill="#432c13"/>
  <path d="m565.67,342.04c4.19.93,8.34,1.93,10.84,5.95-11.04,11.53-21.15,23.83-30.28,37.48-4.04-5.71-9.83-6.9-15.74-7.83-.46-.99-2.24-.26-2.29-1.77,11.41-12.47,23.72-23.95,37.48-33.82Z" fill="#432c13"/>
  <path d="m391.55,1060.09c66.82-1.13,133.64-2.1,200.46-2.1,2.28,0,4.79-.5,5.96,2.37-.08,1.78-1.05,2.72-2.78,2.87-.83.07-1.66.04-2.5.04-66,.09-131.99-.63-197.97-1.71-1-.02-1.99-.13-2.99-.2-.06-.43-.12-.85-.18-1.28Z" fill="#432c13"/>
  <path d="m656.66,1041.58c4.54,4.52,5.5,10.2,4.47,16.11-2.13,12.17-8.61,20.96-20.93,24.38-6.1,1.7-11.74.21-17.28-3.95,2.08-1.09,3.76-1.95,5.42-2.84,6.7-3.57,10.57-9.05,12.31-16.53,1.88-8.05,6.06-14.64,14.67-17.19l1.33.02Z" fill="#432c13"/>
  <path d="m620.1,1074.95c-5.87-7.76-5.71-15.76-2.3-24.01,3.19-7.73,8.47-13.36,16.47-16.33,7.06-2.62,13.86-1.48,18.26,3.39-1.02,1.34-2.64,1.69-4.03,2.43-5.83,3.08-9.84,7.51-11.29,14.2-2.05,9.48-7.17,16.61-17.12,20.31Z" fill="#432c13"/>
  <path d="m685.59,582.13c1.62-4.08,4.28-7.52,7.02-10.86,8.23-10.04,8.05-18.98-2.41-28.09-5.01-4.36-10.23-8.55-13.13-14.86-1.2-2.63-1.78-5.21-1.27-8.24,2.83,6.81,8.33,10.88,14.19,14.63,3.64,2.34,7.29,4.7,10.72,7.33,8.18,6.27,9.69,15.89,2.34,25.4-1.51,1.95-3.45,3.63-5.42,5.15-4.61,3.59-8.98,7.39-12.33,12.23.09-.9.19-1.8.28-2.7Z" fill="#432c13"/>
  <path d="m441.64,534.93c1.73.62,3.67-.19,5.34.8-.38.43-.84.83-.5,1.5-1.78,1.27-3.91.22-5.78.87.32-1.06.63-2.11.95-3.17Z" fill="#827664"/>
  <path d="m490.47,184.06c2.98-.36,5.94-.2,9.6.24-3.5,1.23-6.43,1.85-9.5,1.8-.03-.68-.06-1.36-.1-2.04Z" fill="#c5bbb0"/>
  <path d="m586.42,293.96c.4,3.15-.92,6.01-1.49,9.01-.45-3.04-.68-6.07-.11-9.09.53.03,1.07.06,1.6.09Z" fill="#c5bbb0"/>
  <path d="m734.06,389.93c-.82-2.09-1.22-4.22-.68-6.52,1.42,1.97,2.37,4.07,2.12,6.57-.48-.02-.96-.04-1.44-.05Z" fill="#a49e8f"/>
  <path d="m888.71,1061.26c-.1-.37-.19-.75-.29-1.12,3.64-.47,7.25-.06,10.9.43-3.51.6-7.01,1.3-10.61.69Z" fill="#827664"/>
  <path d="m391.55,1060.09c.06.43.12.85.18,1.28-3.42.64-6.82-.14-10.23-.19.02-.35.04-.69.06-1.04,3.33-.18,6.66-.44,9.99-.05Z" fill="#827664"/>
  <path d="m428.61,592.9c1.95,1.31,3.99-.51,5.96.19-.04.46-.08.91-.12,1.37-1.93,1.07-4.02.03-6,.48.05-.68.11-1.36.16-2.04Z" fill="#a49e8f"/>
  <path d="m640.93,341.55c1.88,1.11,3.5,2.5,4.68,4.35-1.04-.1-1.91.1-2.28,1.24-.99-1.68-1.98-3.35-2.96-5.03.19-.18.38-.37.56-.56Z" fill="#c5bbb0"/>
  <path d="m351.79,478.88c-.67.05-1.33.1-2,.14.15-2.42,1.18-4.6,1.8-6.9.49-.1.98-.2,1.47-.31-.86,2.28-.23,4.82-1.27,7.06Z" fill="#4d5c2c"/>
  <path d="m472.69,174.18c1.79-.34,3.56-.44,5.69.54-1.93,1.77-4.02,1.16-5.95,1.2.09-.58.17-1.16.26-1.74Z" fill="#a49e8f"/>
  <path d="m696.81,471.04c-.59-.65-1.34-.9-2.19-.94,1.09-1.45,2.63-2.18,4.83-3.4-.44,2.33-1.44,3.39-2.64,4.34Z" fill="#827664"/>
  <path d="m749.77,417.19c-.42-1.81-.37-3.6.21-5.66,2.04,1.58,1.37,3.65,1.46,5.51-.56.05-1.11.1-1.67.15Z" fill="#a49e8f"/>
  <path d="m640.36,227.72c-1.7.37-3.39.75-6.04,1.33,2.24-2.32,4.23-2.67,6.23-2.98-.06.55-.13,1.1-.19,1.65Z" fill="#a49e8f"/>
  <path d="m699.63,180.83c-1.82.26-3.55.1-5.45-1.19,2.09-.88,3.85-.64,5.62-.14l-.17,1.33Z" fill="#a49e8f"/>
  <path d="m516.41,289.21c1.71-.44,3.38-.3,5.55.2-1.98,1.35-3.7,1.57-5.49,1.52-.02-.57-.04-1.14-.06-1.71Z" fill="#c5bbb0"/>
  <path d="m448.48,715.66c-1.5.75-3.15.73-4.75.95,0-.3-.13-.54-.38-.71,1.57-1.06,3.26-1.78,5.2-1.78-.02.51-.05,1.03-.07,1.54Z" fill="#c5bbb0"/>
  <path d="m815.36,764.96c.3,2.05.7,4.1-.41,6.42-1.94-1.26-1.58-2.87-1.39-4.42,1.17-.15,1.04-1.48,1.8-2Z" fill="#c5bbb0"/>
  <path d="m600.26,476.22c.73.29,1.46.57,2.19.86-1.33,1.07-2.5,2.48-4.72,2.54-.05-2.11,1.4-2.64,2.53-3.4Z" fill="#a49e8f"/>
  <path d="m381.56,1060.14c-.02.35-.04.69-.06,1.04-1.4,1.11-2.73.44-4.94-.23,2.07-1.13,3.53-.97,5-.81Z" fill="#a49e8f"/>
  <path d="m550.54,242.96c1.79.26,3.37.9,4.66,2.8-1.93.07-3.38-.36-4.67-1.41,0-.46,0-.93,0-1.39Z" fill="#a49e8f"/>
  <path d="m696.82,278.13c-1.3-.35-2.31-1.06-3.22-2.68,2.2.27,3.75,1.06,5.11,2.33-.63.12-1.26.23-1.9.35Z" fill="#c5bbb0"/>
  <path d="m382.5,420.99c-.39-1.87.85-3.3,1.46-4.99.65,1.67.67,3.37.29,5.1-.58-.04-1.17-.07-1.75-.11Z" fill="#c5bbb0"/>
  <path d="m644.44,300.06c-1.58.02-3.13-.04-4.79-1.58,2.03-.61,3.53-.66,5.06-.18-.09.59-.18,1.17-.27,1.76Z" fill="#a49e8f"/>
  <path d="m396.6,398.04c-.4-1.87.78-3.34,1.41-5.02.57,1.7.65,3.4.12,5.12-.51-.03-1.01-.07-1.52-.1Z" fill="#c5bbb0"/>
  <path d="m504.46,297.95c.03.78.05,1.55.08,2.33-.68.76-1.52,1.12-2.87,1.08.04-1.94,1.55-2.58,2.79-3.41Z" fill="#827664"/>
  <path d="m599.3,344.14c-1.4-.27-2.59-.92-3.91-1.95,1.66-1.5,2.92-.22,4.18-.1-.09.68-.18,1.36-.27,2.04Z" fill="#a49e8f"/>
  <path d="m480.43,444.12c1.41-.09,2.82-.29,4.19.26-.03.51-.05,1.02-.08,1.52-1.45.05-2.94.26-4.05-1.04-.14-.24-.16-.49-.06-.75Z" fill="#c5bbb0"/>
  <path d="m718.55,170.94c-1.25.05-2.59.47-3.81-.95,1.3-1.19,2.67-.93,4.07-.47-.09.47-.17.95-.26,1.42Z" fill="#a49e8f"/>
  <path d="m627.77,309.56c-1.27.4-2.52.49-3.98-.3.74-1.83,2.35-1.19,3.62-1.34.12.54.24,1.09.36,1.63Z" fill="#a49e8f"/>
  <path d="m535.42,301.09c1.32-.12,2.6-.17,3.41,1.4-1.2.75-2.38.56-3.57.17l.16-1.56Z" fill="#a49e8f"/>
  <path d="m433.48,656.27c-1.21,1.17-2.64.69-4.69.52,1.85-1.07,3.21-1.69,4.83-1.62-.05.37-.09.73-.14,1.1Z" fill="#a49e8f"/>
  <path d="m658.27,291.16c-1.27-.23-2.61-.31-3.43-1.63,1.15-1.06,2.34-.7,3.54-.18-.04.6-.08,1.21-.11,1.81Z" fill="#a49e8f"/>
  <path d="m528.2,375.87c.05,1.51,1.84.79,2.29,1.77-.02.48-.03.95-.05,1.43-1.15-.12-2.56.32-2.97-1.37-.3-.83-.13-1.47.73-1.83Z" fill="#a49e8f"/>
  <path d="m839.59,346.97c.58,0,1.16-.01,1.75-.02.3,1.11.45,2.2-.16,3.35-1.12-.86-1.45-2.05-1.59-3.33Z" fill="#827664"/>
  <path d="m529.43,210.16c1.37-.18,2.48.29,3.54,1.46-1.37.46-2.53.33-3.67-.19.04-.42.09-.85.13-1.27Z" fill="#c5bbb0"/>
  <path d="m541.42,226.18c1.33-.04,2.39.65,3.58,1.27-1.16,1.02-2.29.66-3.43.17l-.15-1.44Z" fill="#c5bbb0"/>
  <path d="m770.53,313.97c.61-.03,1.22-.05,1.83-.08.31.94.49,1.85-.39,2.65-1.53-.26-1.35-1.49-1.43-2.57Z" fill="#a49e8f"/>
  <path d="m376.29,473.31c.65-.07,1.3-.14,1.95-.21.44,1.03.79,2.04-.35,2.88-1.25-.49-1.4-1.59-1.6-2.67Z" fill="#a49e8f"/>
  <path d="m557.5,926.06c-.99.94-1.99.93-2.99.02.99-.65,1.99-.63,2.99-.02Z" fill="#827664"/>
  <path d="m675.68,382.94c.58.01,1.16.02,1.73.03.1,1.19-.12,2.21-1.29,2.82-.76-.97-.65-1.9-.44-2.86Z" fill="#827664"/>
  <path d="m500.59,279.32c1.05-.45,2.1-.64,3.21.09-1,.89-2.13,1.29-3.37,1.41.06-.5.11-1,.17-1.5Z" fill="#c5bbb0"/>
  <path d="m413.58,377.06c-.16-1.39.59-2.4,1.39-3.5.82,1.24.75,2.34-.18,3.4-.4.04-.81.07-1.21.11Z" fill="#a49e8f"/>
  <path d="m479.51,273.1c.8-.88,1.8-1.24,2.98-1.11l.05.05c-.21,1.54-1.52,1.83-2.63,2.35-.13-.43-.26-.86-.39-1.29Z" fill="#c5bbb0"/>
  <path d="m592.82,531.94c.6.08,1.21.16,1.81.25-.55.88-1.24,1.46-2.36,1.18-.46-.75-.24-1.2.55-1.43Z" fill="#a49e8f"/>
  <path d="m594.25,362.96c-.82-.74-.88-1.53-.21-2.42,1.28.46,1.43,1.45,1.31,2.58-.37-.05-.73-.1-1.1-.15Z" fill="#a49e8f"/>
  <path d="m708.71,410.14c.6-.05,1.19-.09,1.79-.14.03.86-.21,1.57-1.1,1.93-1.09-.26-1.05-.96-.69-1.79Z" fill="#a49e8f"/>
  <path d="m753.61,470.21c.58-.11,1.17-.21,1.75-.32.14.84-.18,1.46-.96,1.86-1.03-.12-1.15-.7-.8-1.54Z" fill="#a49e8f"/>
  <path d="m353.06,471.82c-.49.1-.98.2-1.47.31-.09-.82-.06-1.57.91-1.92.98.26,1.21.78.56,1.62Z" fill="#c5bbb0"/>
  <path d="m819.5,767.01c.07.81.05,1.57-1.01,1.76-.91-.5-.98-1.07-.18-1.74.4,0,.79-.01,1.19-.02Z" fill="#827664"/>
  <path d="m513.43,196.09c1.15-.27,2.24-.1,3.45.27-1.08.97-2.21.81-3.33.68.07-.33.03-.65-.12-.95Z" fill="#a49e8f"/>
  <path d="m814.71,332.94c.52,0,1.04,0,1.56,0,.19.61.34,1.21-.11,1.83-1.26.03-1.34-.91-1.45-1.82Z" fill="#827664"/>
  <path d="m478.3,560.17c-.33-.78-.19-1.5.29-2.17,1.07.88.64,1.56-.29,2.17Z" fill="#c5bbb0"/>
  <path d="m340.5,586.99c.75.59,1.04,1.22.22,1.98-.66-.6-.71-1.26-.22-1.98Z" fill="#827664"/>
  <path d="m910.51,996.08c-.68.75-1.35.74-2.01-.03.68-.69,1.35-.7,2.01.03Z" fill="#a49e8f"/>
  <path d="m321.82,324.02l1.59-.04c-.06.9-.42,1.54-1.4,1.69-.72-.48-.62-1.04-.19-1.64Z" fill="#827664"/>
  <path d="m750.56,308.95l1.08.06c.77.38.71.84.14,1.37-1.05.06-1.24-.6-1.21-1.43Z" fill="#a49e8f"/>
  <path d="m792.57,323.94c.54.06,1.07.12,1.61.18.41.67.29,1.17-.45,1.5-1.02-.13-1.25-.79-1.16-1.67Z" fill="#a49e8f"/>
  <path d="m529.54,246.05c-.03.45-.05.9-.08,1.34-.59.57-1.21.41-1.34-.27-.18-1,.59-1.17,1.42-1.07Z" fill="#a49e8f"/>
  <path d="m730.61,304.91l1.61.23c.47.66.26,1.1-.44,1.39-.96-.14-1.22-.77-1.16-1.62Z" fill="#a49e8f"/>
  <path d="m558.42,260.14c.93.35,1.76.82,2.11,1.83l-.21.2c-.7.33-1.28.11-1.78-.41l-.12-1.62Z" fill="#c5bbb0"/>
  <path d="m842.62,779.08c-.19.87-.83,1.21-1.61,1.41-.44-.52-.41-1.07-.1-1.63.57.07,1.13.14,1.7.22Z" fill="#c5bbb0"/>
  <path d="m685.59,582.13c-.09.9-.19,1.8-.28,2.7-1.82-1.1-.1-1.83.28-2.7Z" fill="#827664"/>
  <path d="m423.4,295.93c.12,1.06.08,2.1-.39,3.09-1.17-1.2-.27-2.13.39-3.09Z" fill="#a49e8f"/>
  <path d="m416.79,267.29c-.16.45-.36.87-.91.94-.81-.09-1.61-.18-2.42-.27.6-.99,1.59-1.39,2.61-1.75.24.36.48.72.72,1.08Z" fill="#c5bbb0"/>
  <path d="m667.43,234.76c0-.53.01-1.07.02-1.6.89.1,1.51.53,1.75,1.43-.55.55-1.15.47-1.77.18Z" fill="#827664"/>
  <path d="m459.45,487.07c.64-.3,1.3-.41,1.98-.15.01.38.03.75.04,1.13-.74.26-1.44.22-2.09-.26-.14-.26-.12-.5.08-.72Z" fill="#a49e8f"/>
  <path d="m479.35,540.34c.73-.1,1.46-.2,2.18-.3-.47,1.97-1.3,1.31-2.18.3Z" fill="#a49e8f"/>
  <path d="m710.61,572.12c-.35,1.02-1.07.79-1.82.72.1-.89.71-1.1,1.16-1.45.23.24.45.48.66.73Z" fill="#432c13"/>
  <path d="m552.65,786.54c-.83.36-1.61.36-2.29-.33.83-.37,1.61-.39,2.29.33Z" fill="#a49e8f"/>
  <path d="m569.6,788.77c-.83.28-1.62.25-2.32-.33.86-.51,1.63-.35,2.32.33Z" fill="#a49e8f"/>
  <path d="m541.62,259.39c-.02.49-.05.98-.07,1.47-.55.02-.94-.23-.91-.79.03-.54.4-.81.98-.68Z" fill="#827664"/>
  <path d="m442.88,296.09c.57,0,1.14.01,1.7.02-.21.69-.69,1.1-1.39,1-.58-.09-.68-.53-.32-1.01Z" fill="#a49e8f"/>
  <path d="m377.88,307.85c-.11-1.09-.24-1.41-.14-1.63.15-.33.58-.32.74.06.09.21-.2.57-.6,1.57Z" fill="#4d5c2c"/>
  <path d="m859.14,316.47c-.46-.31-.93-.62-1.48-.98.95-.57,1.57-.54,1.91.43-.15.18-.29.36-.43.55Z" fill="#432c13"/>
  <path d="m716.52,373.01c-.2-.67-.4-1.34-.6-2,.56-.02,1.12-.04,1.68-.06.12.54.23,1.08.35,1.62-.48.15-.95.29-1.43.44Z" fill="#c5bbb0"/>
  <path d="m508.45,408.1c.8-.27,1.57-.22,2.29.26-.84.59-1.58.29-2.29-.26Z" fill="#a49e8f"/>
  <path d="m636.48,312.99c.04-.34.08-.69.12-1.03.41,0,.63.21.68.61-.14.39-.4.53-.8.43Z" fill="#c5bbb0"/>
  <path d="m503.34,408.16c.39-.05.78-.1,1.17-.15-.13.32-.12.63.03.94-.6.04-1.02-.22-1.26-.77,0,0,.06-.02.06-.02Z" fill="#a49e8f"/>
  <path d="m654.63,306.88c.44.17.77.41.58.96-.42.4-.8.13-1.18-.09.2-.29.4-.58.59-.88Z" fill="#4d5c2c"/>
  <polygon points="477.3 659.11 476.88 659.17 476.55 658.92 476.98 658.78 477.3 659.11" fill="#827664"/>
  <path d="m483.46,297.69c-.2.33-.48.41-.77.14-.29-.26-.24-.55.08-.77.23.21.46.42.69.63Z" fill="#a49e8f"/>
  <polygon points="595.39 693.97 595.07 694.23 594.68 694.12 595 693.79 595.39 693.97" fill="#827664"/>
  <path d="m766.5,712c-.02-.76.26-1.12,1.06-.78-.35.26-.71.52-1.06.78Z" fill="#c5bbb0"/>
  <path d="m788.75,745.31c.08.34-.04.59-.35.74-.6-.59-.49-.84.35-.74Z" fill="#a49e8f"/>
  <path d="m819.53,747.03c-.2-.43-.14-.8.24-1.11.28.45.12.8-.24,1.11Z" fill="#827664"/>
  <path d="m526.4,416.17c.42.05.84.11,1.26.16-.55.92-.95.74-1.26-.16Z" fill="#a49e8f"/>
  <path d="m820.91,761.76c.6.51.59,1-.05,1.46.02-.49.04-.98.05-1.46Z" fill="#a49e8f"/>
  <path d="m738.34,447.26l1.13-.28c-.03.42-.15.82-.64.8-.17,0-.33-.34-.49-.52Z" fill="#a49e8f"/>
  <path d="m636.48,262.97c.07-.36.13-.73.2-1.09.41.04.61.26.62.67-.27.14-.54.28-.82.42Z" fill="#a49e8f"/>
  <path d="m751.57,772.63c-.38-.02-.76-.04-1.14-.06.41-.66.79-.61,1.14.06Z" fill="#c5bbb0"/>
  <path d="m670.87,780.83c.68.26.81.71.45,1.33-.15-.44-.3-.89-.45-1.33Z" fill="#827664"/>
  <path d="m692.71,782.1c-.35-.71-.16-1.14.65-1.25-.22.42-.43.83-.65,1.25Z" fill="#a49e8f"/>
  <path d="m749.57,781.94c-.43-.72-.2-1.07.61-1.11-.2.37-.41.74-.61,1.11Z" fill="#827664"/>
  <path d="m625.58,798.6c-.6.15-.87-.05-.74-.69.44.02.7.23.74.69Z" fill="#c5bbb0"/>
  <path d="m723.72,805.14c-.07.8-.53,1-1.24.8.41-.27.83-.53,1.24-.8Z" fill="#c5bbb0"/>
  <path d="m446.43,187.94c.35.53.08.68-.46.7-.22-.57.27-.51.55-.62l-.1-.07Z" fill="#4d5c2c"/>
  <path d="m422.42,178.58c-.22.35-.52.41-.76.07-.22-.32-.03-.57.39-.64l.47.1-.1.47Z" fill="#a49e8f"/>
  <path d="m971.43,894.03c-.26-.4-.53-.8-.79-1.21.61.18,1.1.43.79,1.21Z" fill="#827664"/>
  <path d="m442.54,532.05c.15.56-.03.94-.62,1.08.21-.36.41-.72.62-1.08Z" fill="#827664"/>
  <path d="m656.66,1041.58c-.44,0-.89-.01-1.33-.02.45-.77.9-.77,1.33.02Z" fill="#a49e8f"/>
  <path d="m426.64,609.94c.08.26.2.52.23.78.01.09-.2.2-.3.31.02-.36.05-.73.07-1.09Z" fill="#827664"/>
  <path d="m394.2,268.28c-.89,2.28-2.06,4.3-4.86,5.5-.07-3.65,2.84-4.24,4.86-5.5Z" fill="#c5bbb0"/>
  <path d="m572.83,314.98c.94,1.28,1.71,2.61,1.33,4.62-1.61-1.33-2.39-2.78-2.74-4.51.47-.04.93-.07,1.4-.11Z" fill="#a49e8f"/>
  <path d="m739.48,275.03c-1.55-.93-2.23-2.5-2.93-4.05l-.06.06c1.5.76,3.16,1.31,3.94,3.01-.32.33-.64.65-.96.98Z" fill="#c5bbb0"/>
  <path d="m614.53,264.02c1.11-1.77,2.89-2.54,4.77-3.15.08.51.15,1.03.23,1.54-1.53,1.03-3.08,2.01-5.06,1.55l.07.06Z" fill="#a49e8f"/>
  <path d="m717.6,370.94c-.56.02-1.12.04-1.68.06-.62-1.03-.47-2.11-.36-3.72,1.68,1.03,1.87,2.34,2.03,3.67Z" fill="#a49e8f"/>
  <path d="m676.65,283.18c-1.23,0-2.15-.52-2.71-1.69,1.41-.94,2.41.05,3.47.7l-.77.99Z" fill="#a49e8f"/>
  <path d="m602.54,327.56c-.95.97-1.97,1.73-3.72,1.08.77-1.28,1.64-1.98,3.12-1.68.33.07.53.27.6.6Z" fill="#a49e8f"/>
  <path d="m717.57,274.89c-1.1-.44-1.77-1.29-2.33-2.46,1.68-.41,2.49.56,3.29,1.55-.32.3-.64.6-.96.91Z" fill="#c5bbb0"/>
  <path d="m606.38,282.89c.79-1.24,1.83-2.2,3.15-2.83,0,.51,0,1.01,0,1.52-.43,1.21-1.52,1.55-2.57,1.95-.17-.23-.37-.44-.59-.63Z" fill="#c5bbb0"/>
  <path d="m614.61,393.08c-.14-1.09.27-1.9,1.25-2.47.91.94.54,1.7-.32,2.39-.31-.02-.62,0-.92.09Z" fill="#a49e8f"/>
  <path d="m676.61,349.9c-.57-.77-1.04-1.57-.99-3.01,1.33.29,2,.86,2.12,2.1-.38.31-.75.61-1.13.92Z" fill="#a49e8f"/>
  <path d="m697.06,359.29c-1.27-1.19-1.9-2.05-.99-3.27,1.56.61,1.88,1.63.99,3.27Z" fill="#a49e8f"/>
  <path d="m622.18,341.33c-.91-.34-1.8-.69-2.23-2,1.38-.58,2.27-.44,2.54,1.24,0,.29-.11.54-.31.76Z" fill="#827664"/>
  <path d="m625.5,246.02c-.65.9-1.43,1.27-2.53.61.47-1.21,1.41-1.59,2.59-1.57-.1.32-.12.64-.06.96Z" fill="#a49e8f"/>
  <path d="m761.94,277.05c-.95-.17-1.27-.81-1.28-1.84,1.21-.48,1.67.15,1.87,1.23-.09.31-.29.51-.6.61Z" fill="#a49e8f"/>
  <path d="m809.91,301.03c-.31-.53-.62-1.06-.94-1.59.26-.23.51-.47.77-.7.83.55,1.5,1.25,1.8,2.23l-1.63.06Z" fill="#c5bbb0"/>
  <path d="m528.48,337.44c.42-.63,1.05-.75,1.74-.73.14.15.29.3.44.44-.42.93-1.07,1.61-2.06,1.94-.04-.55-.09-1.1-.13-1.65Z" fill="#a49e8f"/>
  <path d="m432.58,362.06c.05-1,.7-1.56,1.33-2.18,1.01.82.63,1.47.17,2.13-.5.02-1,.04-1.5.06Z" fill="#a49e8f"/>
  <path d="m626.67,433.13c.06-.86.63-1.37,1.29-1.85.68.77.53,1.33-.39,1.72-.29.11-.59.15-.89.13Z" fill="#a49e8f"/>
  <path d="m475.82,341.34c.08.7-.08,1.3-.73,1.69l-1.47.03c.35-.93.84-1.74,1.83-2.11.12.13.24.26.36.39Z" fill="#c5bbb0"/>
  <path d="m453.63,349.06c.4-.68.8-1.36,1.23-2.07,1.06.75.72,1.4.12,2.04-.45,0-.9.02-1.34.02Z" fill="#c5bbb0"/>
  <path d="m624.86,461.25c.63-.77,1.25-1.55,1.88-2.32-.13.49.06.8.53.96-.52.76-1.05,1.53-1.57,2.29-.28-.31-.56-.62-.84-.93Z" fill="#fef6ec"/>
  <path d="m622.06,487.49c.28-.34.56-.69.87-1.07.86.78.27,1.28-.22,1.79-.22-.24-.43-.48-.65-.72Z" fill="#a49e8f"/>
  <path d="m622.71,488.21c-.21.27-.43.53-.64.8-.52,0-1.04,0-1.55,0,.23-.79.86-1.19,1.54-1.53.22.24.43.48.65.72Z" fill="#a49e8f"/>
  <path d="m441.34,263.85c.39-.52.82-.92,1.56-.6.21.85-.53.89-1,1.15-.18-.19-.37-.37-.56-.55Z" fill="#a49e8f"/>
  <path d="m482.49,271.98c.32-.69.72-1.07,1.51-.26-.55.12-1,.21-1.46.31l-.05-.05Z" fill="#c5bbb0"/>
  <path d="m563.32,279.37l-1.11-1.08c.39-.3.79-.6,1.18-.9l1.62,1.62c-.56.12-1.13.24-1.69.36Z" fill="#fef6ec"/>
  <path d="m366.7,279.19c-.04.44-.23.76-.7.85-.52-.03-1.04-.06-1.57-.08.27-.8.94-1.11,1.66-1.37.2.21.4.41.61.61Z" fill="#c5bbb0"/>
  <path d="m563.32,279.37c.56-.12,1.13-.24,1.69-.36.25.25.49.51.74.76-.25.24-.49.49-.74.73-.78-.06-1.36-.41-1.69-1.13Z" fill="#a49e8f"/>
  <path d="m565.75,279.77c.65.46.98,1.11,1.1,1.89-.15.15-.3.3-.45.46-.74-.3-1.25-.8-1.39-1.61.25-.24.49-.49.74-.73Z" fill="#a49e8f"/>
  <path d="m784.97,283.97c-.57-.49-.79-1-.13-1.58.61.15.7.59.63,1.11l-.03.47h-.47Z" fill="#827664"/>
  <path d="m601.94,326.96c.49-.88,1.39-1.07,2.25-1.34.27.33.53.67.8,1-.81.31-1.63.63-2.44.94-.07-.33-.27-.53-.6-.6Z" fill="#fef6ec"/>
  <path d="m563.25,326.87c.72-.03,1.18.31,1.43.97-.19.18-.37.36-.55.55-.61.04-1.14-.1-1.53-.61.21-.3.43-.61.64-.91Z" fill="#a49e8f"/>
  <path d="m493.5,338.62c.05-.54.37-.76.88-.76l.33.32c-.04.83-.36,1.49-1.14,1.87l-.07-1.43Z" fill="#a49e8f"/>
  <path d="m511.52,338.02c.02.57-.22.94-.82,1.01-.45-.04-.89-.09-1.34-.13.4-.84,1-1.3,1.98-1.04l.17.15Z" fill="#c5bbb0"/>
  <path d="m657.45,344.04c-.81-.33-1.04-1.04-1.19-1.81.2-.19.39-.38.58-.58.42.09.68.31.67.77-.02.54-.04,1.08-.06,1.62Z" fill="#a49e8f"/>
  <path d="m473.62,343.06c.49-.01.98-.02,1.47-.03-.46.72-.92,1.44-1.38,2.16-.28-.33-.57-.66-.85-.99.25-.38.51-.76.76-1.14Z" fill="#fef6ec"/>
  <path d="m453.63,349.06c.45,0,.9-.02,1.34-.02-.34.76-.36,1.75-1.42,2.01-.26-.19-.5-.4-.72-.63.27-.45.53-.9.8-1.35Z" fill="#fef6ec"/>
  <path d="m432.58,362.06c.5-.02,1-.04,1.5-.06-.32.77-.39,1.71-1.26,2.14-1.09-.72-.29-1.42-.24-2.08Z" fill="#fef6ec"/>
  <path d="m614.61,393.08c.3-.08.61-.1.92-.09-.14.82-.29,1.65-.42,2.47-.3-.24-.6-.48-.9-.72.13-.55.26-1.11.4-1.66Z" fill="#fef6ec"/>
  <path d="m572.83,314.98c-.47.04-.93.07-1.4.11-.15-.26-.22-.55-.21-.86.3-.24.59-.49.89-.73.24.49.48.99.72,1.48Z" fill="#fef6ec"/>
  <path d="m595.77,314.15c.45-.26.44-1.16,1.27-.93.48.79-.38,1.01-.6,1.48-.01-.45-.24-.63-.68-.54Z" fill="#fef6ec"/>
  <path d="m598.91,311.4c-.33.27-.66.54-.99.81-.7-.71-.27-1.21.11-1.71.29.3.58.6.87.9Z" fill="#fef6ec"/>
  <path d="m598.03,310.5c.34-.51.7-.97,1.37-.57.56.79-.14,1.07-.5,1.47-.29-.3-.58-.6-.87-.9Z" fill="#fef6ec"/>
  <path d="m809.91,301.03l1.63-.06c.08.44.36,1-.32,1.15-.8.17-.98-.59-1.31-1.09Z" fill="#fef6ec"/>
  <path d="m808.98,299.45c-.29-.38-.59-.77-.18-1.3.55-.26.71.23.95.6-.26.23-.51.47-.77.7Z" fill="#c5bbb0"/>
  <path d="m786.99,287.47c-.36-.5-.76-1,.31-1.98.18.38.36.78.55,1.18-.29.27-.57.54-.86.8Z" fill="#fef6ec"/>
  <path d="m785.47,283.5c.28.34.56.69.86,1.06-.94.72-.94-.4-1.37-.59h.47s.03-.47.03-.47Z" fill="#fef6ec"/>
  <path d="m605.46,283.95c.12.49.1.85-.57.57.22-.17.42-.34.63-.5l-.06-.07Z" fill="#c5bbb0"/>
  <path d="m606.96,283.52c-.42.44-.84.84-1.5.43l.06.07c-.03-.61.33-.94.86-1.13.22.19.41.4.59.63Z" fill="#c5bbb0"/>
  <path d="m567.47,283.04c.17.11.33.23.3.2.03.04-.1-.11-.23-.26l-.07.06Z" fill="#a49e8f"/>
  <path d="m566.85,281.66c.43.36.69.8.62,1.38l.07-.06c-.38-.29-.76-.57-1.13-.86.15-.16.3-.31.45-.46Z" fill="#a49e8f"/>
  <path d="m609.53,281.57c0-.51,0-1.01,0-1.52.42-.09.97-.38,1.1.3.15.79-.59.94-1.1,1.22Z" fill="#fef6ec"/>
  <polygon points="435.14 358.6 434.91 358.7 434.96 358.44 435.14 358.6" fill="#a49e8f"/>
  <path d="m364.43,279.95c.52.03,1.04.06,1.57.08-.4.42-.81.84-1.21,1.26-.28-.3-.56-.61-.84-.91.1-.21.26-.36.48-.43Z" fill="#fef6ec"/>
  <path d="m657.45,344.04c.02-.54.04-1.08.06-1.62.32.36.65.72.94,1.05-.12.64-.48.77-1,.57Z" fill="#fef6ec"/>
  <path d="m764.05,280.44c-.22-.38-.44-.77-.63-1.1.5-.89,1.01-.63,1.54-.21-.3.44-.61.87-.91,1.31Z" fill="#fef6ec"/>
  <path d="m366.1,278.58c.29-.27.55-.64,1.04-.34.26.49-.09.72-.44.94-.21-.2-.41-.4-.61-.61Z" fill="#c5bbb0"/>
  <path d="m762.54,276.44c.34.43,1.17.61.7,1.46-.88.39-.94-.46-1.29-.85.31-.1.51-.3.6-.61Z" fill="#fef6ec"/>
  <path d="m719.06,274.4c.31.24.62.48.93.73-.29.42-.58.83-.86,1.25-.31-.36-.61-.71-.92-1.07.28-.3.57-.61.85-.91Z" fill="#fef6ec"/>
  <path d="m739.48,275.03c.32-.33.64-.65.96-.98.26.11.42.31.48.59-.33.3-.66.6-.99.89-.22-.1-.37-.27-.44-.5Z" fill="#fef6ec"/>
  <path d="m717.57,274.89c.32-.3.64-.6.96-.91.24.07.41.21.53.42-.28.3-.57.61-.85.91-.29-.02-.51-.16-.64-.42Z" fill="#fef6ec"/>
  <path d="m656.25,342.23c-.31-.26-.64-.51-.38-.98.48-.26.7.14.96.4-.19.2-.38.39-.58.58Z" fill="#a49e8f"/>
  <path d="m640.37,342.11c-.37-.21-.72-.43-.46-.94.49-.27.73.12,1.02.38-.18.2-.36.38-.56.56Z" fill="#c5bbb0"/>
  <polygon points="759.75 273.6 760.01 273.47 759.99 273.76 759.75 273.6" fill="#a49e8f"/>
  <polygon points="714.18 271.3 714.29 271.57 713.98 271.51 714.18 271.3" fill="#c5bbb0"/>
  <path d="m736.55,270.98c-.15-.07-.43-.14-.42-.21,0-.3.16-.21.36.27,0,0,.06-.06.06-.06Z" fill="#c5bbb0"/>
  <path d="m624,342.56c-.27-.16-.54-.31-.81-.47-.25-.52-.49-1.05-.74-1.57.93.07,1.75.37,2.31,1.18-.26.29-.51.58-.77.86Z" fill="#fef6ec"/>
  <path d="m462.14,267.95c-.53.36-1.06.73-1.58,1.09-.19-.17-.36-.36-.52-.55.54-.39,1.08-.78,1.62-1.18-.13.44.05.64.49.63Z" fill="#fef6ec"/>
  <path d="m461.65,267.32c.37-.45.72-.34.96.1.04.07-.3.35-.47.54-.44,0-.62-.2-.49-.63Z" fill="#a49e8f"/>
  <path d="m438,266.36c.41-.2.82-.4,1.22-.59.73.89.03,1.14-.5,1.46-.24-.29-.48-.57-.72-.86Z" fill="#fef6ec"/>
  <path d="m416.06,266.2c.33-.28.66-.55.99-.83.22.27.44.55.66.82-.31.36-.61.73-.92,1.09-.24-.36-.48-.72-.72-1.08Z" fill="#c5bbb0"/>
  <path d="m417.05,265.37c.42-.19.83-.38,1.25-.57l.26.25c-.03.57-.37.91-.85,1.15-.22-.27-.44-.55-.66-.82Z" fill="#c5bbb0"/>
  <path d="m614.46,263.96c.02.41.06.86-.61.49.23-.15.45-.29.67-.43l-.07-.06Z" fill="#a49e8f"/>
  <path d="m441.9,264.4c-.32.25-.64.5-.96.76-.73-.81-.06-1.02.4-1.31.19.18.38.36.56.55Z" fill="#a49e8f"/>
  <path d="m418.3,264.8c.2-.21.41-.42.62-.63.69.64,0,.7-.36.88,0,0-.26-.25-.26-.25Z" fill="#c5bbb0"/>
  <path d="m560.53,261.97c.25.18.5.37.75.55-.55.51-.82.26-.96-.36l.21-.2Z" fill="#c5bbb0"/>
  <path d="m625.2,435.7c.19-.42.43-.8,1.01-.82.67.48.28,1.04.03,1.59-.34-.26-.69-.52-1.03-.78Z" fill="#fef6ec"/>
  <path d="m619.53,262.41c-.08-.51-.15-1.03-.23-1.54.6-.36,1.26-.28,1.36.38.08.55-.54.96-1.13,1.16Z" fill="#fef6ec"/>
  <path d="m622.46,340.52c.25.52.49,1.05.74,1.57-.34-.26-.67-.51-1.01-.77.2-.21.3-.46.31-.76,0,0-.03-.05-.03-.05Z" fill="#827664"/>
  <path d="m627.99,457.89c-.33-.22-.32-.43.03-.62.33.22.32.43-.03.62Z" fill="#a49e8f"/>
  <path d="m620.52,489.02c.52,0,1.04,0,1.55,0-.35.44-.49,1.21-1.24,1.09-.67-.11-.39-.66-.31-1.08Z" fill="#fef6ec"/>
  <path d="m625.5,246.02c-.06-.32-.04-.64.06-.96.27.08.54.17.81.25.02.61-.48.59-.87.71Z" fill="#fef6ec"/>
  <path d="m509.68,340.17c-.25.42-.51.83-.76,1.25-.29-.45-.58-.9-.87-1.35.3-.26.6-.51.9-.77l.74.87Z" fill="#fef6ec"/>
  <path d="m493.07,340.58c-.38.4-.7.96-1.41.45-.45-.78.27-.9.7-1.19.24.25.48.49.72.74Z" fill="#fef6ec"/>
  <path d="m475.45,340.94c.2-.24.39-.49.59-.73.59.51.21.82-.23,1.12-.12-.13-.24-.26-.36-.39Z" fill="#c5bbb0"/>
  <path d="m509.37,338.9c.45.04.89.09,1.34.13-.34.38-.69.76-1.03,1.14l-.74-.87c.09-.19.23-.32.43-.4Z" fill="#fef6ec"/>
  <path d="m626.74,458.93c1.05-.17.92.32.53.96-.47-.16-.66-.47-.53-.96Z" fill="#a49e8f"/>
  <path d="m493.5,338.62l.07,1.43c-.11.23-.28.41-.49.54-.24-.25-.48-.49-.72-.74.38-.41.76-.82,1.14-1.23Z" fill="#fef6ec"/>
  <path d="m626.67,433.13c.31.02.61-.02.89-.13-.11.29-.21.58-.32.87-.68.12-.65-.29-.57-.74Z" fill="#fef6ec"/>
  <path d="m528.48,337.44c.04.55.09,1.1.13,1.65-.18.19-.4.33-.65.42-.32-.38-.64-.76-.96-1.14.5-.31.99-.62,1.49-.94Z" fill="#fef6ec"/>
  <path d="m511.35,337.86c.04-.57.25-.8.79-.4-.21.19-.41.37-.62.56l-.17-.15Z" fill="#c5bbb0"/>
  <path d="m494.38,337.86c.22-.14.44-.28.76-.48-.18.34-.31.57-.44.8l-.33-.32Z" fill="#a49e8f"/>
  <path d="m530.23,336.71c.27-.1.53-.19.85-.31-.15.27-.28.51-.4.75-.15-.14-.3-.29-.44-.44Z" fill="#a49e8f"/>
  <path d="m564.68,327.83c.19.23.39.46.58.69-.45.56-.78.2-1.12-.13.18-.19.36-.37.55-.55Z" fill="#a49e8f"/>
  <path d="m596.45,314.69c-.19.16-.48.48-.57.44-.43-.24-.53-.6-.11-.98.44-.09.67.1.68.54Z" fill="#a49e8f"/>
  <path d="m810.68,730.67c2.66,5.25,4.25,10.78,4.51,16.68-2.34-5.24-3.77-10.76-5.18-16.28.33.04.55-.09.67-.4Z" fill="#c5bbb0"/>
  <path d="m617.45,757.33c-2.53,1.19-4.1.77-4.89-1.55" fill="#fef6ec"/>
  <path d="m469.98,771.56c2.26-1.91,4.61-2.57,7.3-3.04-1.46,2.5-1.95,2.7-7.3,3.04Z" fill="#a49e8f"/>
  <path d="m801.26,757.01c-1.49-.13-2.41-.87-2.71-2.8,1.84.12,2.67,1.02,2.96,2.62l-.25.18Z" fill="#827664"/>
  <path d="m804.4,808.87c.01-.59.03-1.18.04-1.77.84-.28,1.68-.98,2.55.02-.52,1.12-1.55,1.45-2.59,1.75Z" fill="#a49e8f"/>
  <path d="m825.18,759.66c.22-1.16.56-2.25,1.97-2.99.66,1.78-.61,2.53-1.57,3.42-.14-.14-.27-.29-.41-.43Z" fill="#c5bbb0"/>
  <path d="m827.73,756.43c-.47-1.77.44-2.17,1.26-2.65,1.05,1.46-.18,1.9-1.26,2.65Z" fill="#c5bbb0"/>
  <path d="m806.03,763.48c-.62-.65-1.37-1.23-1.43-2.63,1.29.14,1.82.88,2.13,1.92-.23.24-.47.47-.7.71Z" fill="#c5bbb0"/>
  <path d="m810.01,731.07c-.61-.79-.98-1.6-.12-2.48.74.53.72,1.33.79,2.08-.12.31-.34.44-.67.4Z" fill="#a49e8f"/>
  <path d="m548.61,648.29c-.01.52-.03,1.04-.04,1.57-.62-.1-1.09-.38-1.2-1.14.11-.84.73-.51,1.24-.42Z" fill="#c5bbb0"/>
  <path d="m443.36,715.9c.24.18.37.41.38.71-.54.27-1.09.43-1.66.06.12-.74.69-.78,1.28-.77Z" fill="#827664"/>
  <path d="m830.92,750.51c.49-.55.97-1.1,1.46-1.65.2.23.42.43.66.61-.43.59-.85,1.18-1.28,1.77-.28-.24-.56-.49-.84-.73Z" fill="#a49e8f"/>
  <path d="m808.35,766.3c-.5-.59-.99-1.19-1.49-1.78.27-.16.5-.36.7-.6.52.63,1.03,1.26,1.55,1.88-.34.03-.6.19-.77.49Z" fill="#c5bbb0"/>
  <path d="m490.62,803.33c0,.49-.02.98-.03,1.47-.67-.04-1.13-.36-1-1.05.09-.44.57-.53,1.02-.42Z" fill="#c5bbb0"/>
  <path d="m789.44,648.33c.64-.22,1.14-.23,1.05.68" fill="#c5bbb0"/>
  <path d="m833.42,747.93c.18-.23.36-.46.55-.69.61.48.2.73-.23.97l-.32-.28Z" fill="#a49e8f"/>
  <path d="m832.37,748.87c.17-.52.46-.9,1.05-.94,0,0,.32.28.32.28-.23.42-.47.84-.7,1.27-.24-.18-.46-.38-.66-.61Z" fill="#a49e8f"/>
  <path d="m831.76,751.25c-.22.3-.43.61-.65.91-.27-.23-.53-.46-.8-.69.2-.32.41-.63.61-.95.28.24.56.49.84.73Z" fill="#a49e8f"/>
  <path d="m831.1,752.16c-.38.36-.5,1.19-1.34.8-.54-.78.21-1.06.54-1.5.27.23.53.46.8.69Z" fill="#c5bbb0"/>
  <path d="m802.02,758.49c-.49-.37-.9-.79-.76-1.48l.25-.18c.68-.06,1.02.34,1.24.91-.25.25-.49.5-.74.75Z" fill="#c5bbb0"/>
  <path d="m803,759.66c-.33-.39-.65-.78-.98-1.17.25-.25.49-.5.74-.75.32.35.64.7.96,1.05l-.71.88Z" fill="#c5bbb0"/>
  <path d="m803.72,758.79c.27.31.55.62.81.92-.64.86-1.08.36-1.52-.04l.71-.88Z" fill="#c5bbb0"/>
  <path d="m825.58,760.09c-.13.38-.2.83-.79.6-.28-.5,0-.78.38-1.03.14.14.27.29.41.43Z" fill="#c5bbb0"/>
  <path d="m806.73,762.77c.52.21.79.61.83,1.16-.2.24-.44.43-.7.6-.28-.35-.56-.7-.84-1.04.23-.24.47-.47.7-.71Z" fill="#c5bbb0"/>
  <path d="m809.23,767.29c-.62-.04-.82-.45-.87-.99.17-.3.42-.47.77-.49.42.24.59.6.5,1.08-.14.13-.27.26-.39.4Z" fill="#a49e8f"/>
  <path d="m809.62,766.9c.12.22.24.43.39.68-.29-.11-.53-.2-.78-.29.13-.14.26-.27.39-.4Z" fill="#a49e8f"/>
  <path d="m827.45,792.48c-.06.37-.28.54-.6.37-.35-.18-.34-.45-.03-.67l.46-.14.17.45Z" fill="#827664"/>
  <path d="m620.52,807.98c-.38-.04-.75-.08-1.13-.13.42-.33.79-.26,1.13.13Z" fill="#a49e8f"/>
  <path d="m742.57,703.17c-.05.64-.1,1.29-.15,1.93-.58-.35-.97-.83-1.02-1.53.27-.47.68-.56,1.17-.4Z" fill="#c5bbb0"/>
  <path d="m655.44,704.87c0-.58,0-1.15,0-1.73.49-.17.89-.07,1.16.41-.07.72-.46,1.15-1.16,1.32Z" fill="#c5bbb0"/>
  <path d="m663.59,703.22c-.03.59-.05,1.17-.08,1.76-.68-.13-1.14-.47-1.27-1.28.12-.89.8-.53,1.35-.48Z" fill="#c5bbb0"/>
  <path d="m683.59,703.23c-.07.65-.15,1.29-.22,1.94-.56-.27-1-.65-1.05-1.42.09-.82.73-.58,1.28-.52Z" fill="#c5bbb0"/>
  <path d="m755.53,705.05c-.03-.63-.06-1.27-.09-1.9.44.05.88.1,1.29.15.11,1.04-.3,1.58-1.2,1.75Z" fill="#c5bbb0"/>
  <path d="m763.59,703.23c-.03.58-.05,1.17-.08,1.75-.62-.14-1.09-.43-1.14-1.39.05-.65.66-.45,1.22-.36Z" fill="#c5bbb0"/>
  <path d="m764.58,680.45c-.44.46-.9.45-1.38.07.44-.41.9-.41,1.38-.07Z" fill="#827664"/>
  <path d="m722.29,680.71c.04.6-.28,1-.76,1.3-.26-.73-.05-1.19.76-1.3Z" fill="#c5bbb0"/>
  <path d="m700.55,688.03c-.03.33-.05.66-.08.99-.09-.25-.21-.49-.26-.74-.01-.06.22-.17.34-.25Z" fill="#827664"/>
  <path d="m644.56,703.23c-.34.27-.67.53-1.01.8-.21-.95.31-.98,1.01-.8Z" fill="#c5bbb0"/>
  <path d="m676.68,704.21c-.24-.26-.34-.57-.29-.92.24.02.62-.04.7.08.28.43-.05.67-.42.84Z" fill="#c5bbb0"/>
  <path d="m707.59,704.11c-.25-.21-.31-.47-.2-.78.4-.13.83-.24.85.36,0,.13-.42.28-.65.41Z" fill="#c5bbb0"/>
  <path d="m735.77,704.28c-.12-.35-.23-.7-.35-1.05.27.02.69-.06.79.09.32.47-.04.75-.44.96Z" fill="#c5bbb0"/>
  <path d="m643.57,605.94c1.93.7,3.52,1.77,4.21,3.81-.48,1.3-1.63,1.66-2.62,2.18-4.94-2.87-7.92-2.91-10.26-.15-2,2.37-1.99,6.88.02,9.3,2.41,2.9,5.45,2.88,10.21-.1,1.26.37,2.41.94,3.24,2.36-3.12,3.82-6.95,5.33-11.8,3.91-.27-.39-.62-.45-1.04-.27-3.23-.99-4.91-3.68-6.77-6.35-.96-11.46,3.63-16.61,13.62-15.1.27.5.68.59,1.18.42Z" fill="#432c13"/>
  <path d="m665.34,606.16c2.7,6.81,5.4,13.63,8.12,20.5-1.46.93-2.87.73-4.22.51-1.43-.95-1.21-2.73-2.37-4.05h-7.81c-1.5.64-1.1,2.56-2.1,3.63-1.31,1.19-2.74.56-4.05.6-.19-.6-.43-.95-.35-1.17,2.27-5.98,4.59-11.94,6.88-17.91.54-1.4.92-2.94,2.93-2.75.99.21,1.99.43,2.98.64Zm-2.5,4.97c-1.16,3-2.17,4.99-2.38,7.54,1.71.19,3.27.63,5.14-.31-.8-2.1-1.59-4.18-2.76-7.23Z" fill="#432c13"/>
  <path d="m708.6,614.34c.94,0,1.87,0,2.81,0,.4.19.81.37,1.21.56.36.97.29,1.91-.03,2.89-2.43.94-4.99.01-7.35.64-1.07,1.42-.77,2.83-.32,4.59,3.04.16,6.12.33,9.02.48,1.01,1.26.88,2.33.22,3.74-4.59.4-9.31.21-14.44.04v-21.11c.3-.24.6-.48.9-.73,3.91.02,7.82.04,11.72.06.43.08.86.17,1.29.25.16.29.33.58.49.87-.31.57-.32,1.15-.02,1.72-2.48,2.91-5.87.49-9,1.72-.95.99-.52,2.39-.12,3.9.81.11,1.62.22,2.43.32.38.63.77.66,1.19.04Z" fill="#432c13"/>
  <path d="m693.59,605.87c.32,1.14.46,2.27-.27,3.43-2.83.95-5.88.03-8.89.68-1.1,1.25-.68,2.67-.38,4.15,2.49,1.22,5.29-.14,7.78.92.81.9.41,1.86.19,2.89-2.4,1.42-5.24.11-7.9,1.23-.92,2.36.02,5.08-.6,7.64-1.35.71-2.61.55-4.21.17v-21.54c4.47,0,8.75,0,13.03,0,.42.14.83.29,1.25.43Z" fill="#432c13"/>
  <path d="m665.34,606.16c-.99-.21-1.99-.43-2.98-.64,1.19-.7,2.28-.94,2.98.64Z" fill="#a49e8f"/>
  <path d="m712.62,614.91c-.4-.19-.81-.37-1.21-.56.65-.35,1.05-.15,1.21.56Z" fill="#827664"/>
  <path d="m635.53,626.98c.42-.18.77-.12,1.04.27-.45.28-.77.11-1.04-.27Z" fill="#827664"/>
  <path d="m643.57,605.94c-.5.17-.91.08-1.18-.42.53-.26.88.02,1.18.42Z" fill="#827664"/>
  <path d="m693.59,605.87c-.42-.14-.83-.29-1.25-.43.67-.6,1.08-.44,1.25.43Z" fill="#a49e8f"/>
  <path d="m700.62,605.46c-.3.24-.6.48-.9.73-.14-.79.05-1.17.9-.73Z" fill="#a49e8f"/>
  <path d="m713.63,605.76c-.43-.08-.86-.17-1.29-.25.57-.65,1-.55,1.29.25Z" fill="#a49e8f"/>
  <path d="m714.1,608.36c-.3-.58-.29-1.15.02-1.72.41.58.41,1.15-.02,1.72Z" fill="#827664"/>
  <path d="m708.6,614.34c-.42.62-.82.59-1.19-.04.4.01.79.03,1.19.04Z" fill="#827664"/>
</svg>